<svg id="Layer_1" data-name="Layer 1" xmlns="http://www.w3.org/2000/svg" viewBox="0 0 1397.61 1335.95"><defs><style>.cls-1{fill:none;stroke:#fff;stroke-linejoin:round;stroke-width:90px;}.cls-2{fill:#fff;}</style></defs><title>home</title><polyline class="cls-1" points="1305.2 675.4 698.81 81.19 92.41 675.4"/><polygon class="cls-2" points="888.41 1253.26 888.41 911.59 524.06 911.59 524.06 1253.26 191.51 1253.26 191.51 736.33 191.78 736.33 191.78 732.54 194.84 732.54 698.81 231.86 1202.77 732.54 1204.8 732.54 1204.81 734.56 1206.1 735.84 1206.1 1253.26 888.41 1253.26"/><path class="cls-2" d="M698.81,234l502.47,499.18.87.88h1.16v1.15l.87.87.41.4v515.3H889.91V910.09H522.56v341.67H193V737.83h.27V734h2.18l.88-.88L698.81,234m0-4.23L194.22,731h-3.93v3.79H190v519.93H525.56V913.09H886.91v341.67H1207.6V734.83h-.39l-.9-.9,0-2.89h-2.9L698.81,229.75Z"/></svg>