<svg id="Layer_1" data-name="Layer 1" xmlns="http://www.w3.org/2000/svg" viewBox="0 0 174.05 69.73"><defs><style>.cls-1,.cls-2{fill:#231f20;}.cls-2{fill-rule:evenodd;}.cls-3{font-size:25px;fill:#fff;stroke:#fff;stroke-miterlimit:10;stroke-width:0.25px;font-family:AgencyFB-Bold, Agency FB;font-weight:700;letter-spacing:0.06em;}</style></defs><title>Artboard 2</title><rect class="cls-1" x="14.37" y="19.56" width="149.25" height="40.02"/><path class="cls-2" d="M37.81,22.23c0,.12-.46.08-.35.24H37c-.09-.09.66-.14.17-.18C37.19,22.21,37.56,22.24,37.81,22.23Zm2.21-.4c0,.06-.33,0-.34.12-.35.06-.24-.11-.33-.13-.27-.05-1,.1-.84-.12A5,5,0,0,1,40,21.83Zm-2.22.52h.85C38.64,22.54,37.65,22.6,37.8,22.35Zm9.49-.84a1.42,1.42,0,0,1-.84.06c-.32,0-.12.2-.35.24l-1.69,0c-.53-.05.3-.07.51-.05,0-.14-.58-.12-.49-.3-.31,0-.11.2-.35.23a2.25,2.25,0,0,1-1.5-.37,2.66,2.66,0,0,1-1.35-.07,12.79,12.79,0,0,1,2.69.2c-.1-.06-.38-.06-.32-.18.61,0,1.33,0,1.33.25a14.43,14.43,0,0,0,2.37-.17s.11.2.33.13c0-.17-.56-.13-.32-.37.54.13.75-.05,1.19-.05a5.26,5.26,0,0,0,1,.07c0,.06-.21,0-.34.06-.58.15-.45.57-1.38.59.42-.07.33-.33.69-.42,0-.07-.3-.05-.5-.06a1.79,1.79,0,0,0-.36.42C47.26,21.72,47.3,21.61,47.29,21.51Zm-6.11.8c.11.21-.6.22-.85.12C40.36,22.3,40.76,22.3,41.18,22.31Zm3.71,0h-.34c-.54,0-.51-.1-.83-.13-1.49-.05.25,0,.51-.12C44.42,22.18,44.92,22.17,44.89,22.34Zm-2.54.1a2.46,2.46,0,0,1-.67-.06c.2-.11.9,0,.69-.3C42.75,22.11,42.49,22.4,42.35,22.44Zm-2-.61c-.46,0,0-.19.34-.12-.13-.15-1.17,0-1.34-.13.39-.12.6,0,1.19,0,0,.14.58.12.49.3C40.72,21.89,40.48,21.65,40.36,21.83Zm-3.55.1c-.18-.26,1.39-.25,1.18,0A3.89,3.89,0,0,0,36.81,21.93Zm21.77,37c-.18.2.52.1.84.13-.14.11-.81.17-.85,0-.31,0-.11.2-.35.24s-.95,0-1.34-.07c-.07,0,.06-.16,0-.18s-1.19,0-.67-.12a1.47,1.47,0,0,1,1,.18,3.34,3.34,0,0,0,1-.11c-.21-.26-.56,0-1,0-.55-.29-3.07,0-4.21-.2,2.44-.07,5.59,0,7.93,0C60.54,59,59,58.75,58.58,58.92ZM64,58.18c.23-.27.93-.08,1.36-.18.27-.06.17,0,.68,0C66.34,58.44,64.17,58.17,64,58.18ZM62.51,58c-.12,0-.27.16,0,.18s.4-.12.17-.12c.32-.18.8.07,1.35,0v.12c-1.28,0-2.51.23-3.55.21a4.72,4.72,0,0,0-1.34-.07c-.2-.08-.07-.09,0-.18C59,58,58.28,58,57.78,58c-.14-.24,1.39.07,1-.12.34-.18.49.18.66.25.43-.09.42.11.5.12s.51,0,.68,0,0,.18.33.13.08-.07,0-.12-.36,0-.84-.13c0,0,.24-.11.17-.12-.29,0-1,.1-.83-.12C60.84,57.87,61.53,57.94,62.51,58Zm-.35.17c-.32,0-.3-.17-.84-.12C61.11,58.21,62,58.3,62.16,58.16ZM39,21.58c-.69,0-.66-.24-1.5-.19a1.71,1.71,0,0,1,1.35,0,2.19,2.19,0,0,1,1.52,0c.38.14-.45-.05-.85,0S39.2,21.5,39,21.58ZM67.4,57.84c.66,0,1.5.28.49.3C68.48,57.94,67.3,58,67.4,57.84ZM66,58.25h.85C67.13,58.44,65.77,58.43,66,58.25Zm-29.74-36h.51l0,.24h-.5C36.57,22.41,36.27,22.45,36.29,22.28Zm21,35.49c.12-.16.77-.12.86-.29,1.17,0,2.63,0,3.53.08-1,.15-2.22,0-3.2,0C58,57.64,57.8,57.77,57.29,57.77Zm-39.56-9.5A6.32,6.32,0,0,1,17.89,51c-.2-.15,0-.83-.05-1.36S17.71,48.75,17.73,48.27Zm31.4-26.44c-.72,0,.27.25-.52.23.11.06.39.07.33.18a3.36,3.36,0,0,1-.84-.06c-.28,0-1,.07-.83-.13a3.06,3.06,0,0,1,.84.07c.36,0,0-.2,0-.18.13-.12.76,0,.52-.24.78.15.95-.12,1.52,0-.09.05-.18.1-.18.18C49.73,21.86,49.1,22,49.13,21.83Zm5,35.68a1.31,1.31,0,0,1,1,0c.16,0,.13-.07.17-.12a4,4,0,0,0,1.19,0c.19,0,.76-.07.67.12a6.34,6.34,0,0,0-1.53.17C55.08,57.65,54.81,57.49,54.1,57.51Zm78.16,1.88c.23.25-1.54.4-1.35.06.33,0,.2.16.67.12s-.18-.16-.33-.18c-.73,0-.43.33-1.2.29a1.91,1.91,0,0,1,1.37-.41C131.83,59.27,131.82,59.39,132.26,59.39Zm-14-.27c-.41,0-1.08.15-1-.12.32,0,.3.17.84.12.13-.2-.68-.08-.49-.3.45,0,1.62.24,1.35,0,.25-.16.92,0,.83.18s-.49,0-.68,0-.14.11-.17.12C118.75,59.15,118.49,59.11,118.28,59.12Zm2.48.8a18.55,18.55,0,0,1-2.53,0c.23-.1.46-.19.36-.41.57-.06.25.18.32.3.45.06.21-.12.35-.18s.4-.06.34,0c.08-.09.06-.16-.16-.24s-.21,0-.17.06a2.5,2.5,0,0,0-1-.19,1.19,1.19,0,0,1,1,0c.9,0,.85-.18,1.69-.05,0,.15-.57.12-1,.11v.18c.66,0,.68-.2,1.35,0,.2,0,.15-.11.18-.18.46,0,.33.13.67.13s.34-.2,1-.11c0,.19-.5.22-1,.23s-.52.22-.69.41c-.65.09,0-.26-.67-.18C120.56,59.81,120.59,59.92,120.76,59.92Zm9.34-1.2c.25-.1.33.05.67.06s.51-.07.68-.05c.45,0,.72.18,1.17.19-.45.32-1.18-.16-1.86,0A1.76,1.76,0,0,0,130.1,58.72Zm-2.37.16c-.07-.11.79-.18.85-.05a3.87,3.87,0,0,1,1.36-.17c-.86.09-.31.25.32.3-.74.32-1.43-.11-2.36,0C127.93,58.94,127.86,58.9,127.73,58.88Zm-15,.21h.51c-.11.15-.16.31-.69.3C112.4,59.22,112.77,59.23,112.71,59.09Zm.13.78c.32,0,.3.17.84.12.17,0,.18-.13.51-.11,0,.08,0,.17.16.18C113.93,60.12,112.88,60.18,112.84,59.87Zm1.68.13c.19-.24.8,0,1.52,0-.31-.26,1.14,0,1.69-.11.12.26-.88.15-1.36.17A7,7,0,0,1,114.52,60Zm-.32-.3c0-.06.21-.05.34-.06s-.12-.16-.33-.18c0-.08,1-.07.35-.18.08-.22.59,0,.67.06s.48,0,.67,0,.1.11.17.12c.25,0,.59,0,.49.12.3,0,.85-.05.67.13-.43-.09-1-.06-1.51-.13-.3,0-.58-.37-1-.13.29.12,1.11,0,1,.31C114.87,59.81,114.9,59.55,114.2,59.7Zm18.09-.85c-.1-.05-.2-.1,0-.12.7,0,2.33.05,3.54,0,.61,0,.6.1,0,.06A32.3,32.3,0,0,1,132.29,58.85Zm-17,.07c.32-.08.22-.32.86-.29-.51.08.43.32-.35.3.1.12.85,0,.66.24-.63-.18-1.43,0-2.36-.13.45-.16-.27,0-.15-.24C114.68,58.73,114.56,59,115.25,58.92Zm.37-.59c-.55-.15,1.2,0,1.18-.12.47.1.72-.06,1.18.07a15,15,0,0,1-1.86.17C116.69,58.33,116.26,58.32,115.62,58.33Zm11.75,1c.35,0,.39-.11.51-.11.43,0,.21.15.67.18-.4.19,0,.31-.69.36-.12-.19.3-.18.18-.36-.43,0-1,.2-.52.29,0,.07-.17,0-.17,0H127c-.12-.19.46-.11.35-.3a4.4,4.4,0,0,1-1.52,0c0-.17.39-.22.69-.29C127.09,59.18,127,59.32,127.37,59.36Zm20.1-.47c-.32-.12,1.35,0,1.85,0C149,59.11,148.18,58.84,147.47,58.89Zm-6.64,1.16a3.77,3.77,0,0,0,1.34.13c-.07.19-1.17.18-1.18,0-.07.14-.68.08-.85.17a5,5,0,0,0,1.85,0s0,.11,0,.12a1.74,1.74,0,0,0,.69-.24c.28,0,.43,0,.49.12a8.92,8.92,0,0,1,1.19,0c.64-.08,0,.27.66.19.24,0,0-.11-.16-.13.13-.13.95,0,1.35,0-.21.09-.65.09-.85.18,0,0,.17.06.16.12a5.88,5.88,0,0,0,.86-.18c-.17.21,1.28.16,1.67.2a7.72,7.72,0,0,1-1,.17c.05.08.42,0,.67.06a18.84,18.84,0,0,1-3.55.22c-.28,0-.32,0-.33-.12-.18,0-.13.1-.34.12s-.27-.13-.34-.13-.28.11-.51.12-.87-.12-1.34-.13c-.75,0-1.44.07-2.2,0s-1.29-.16-2-.2a2.32,2.32,0,0,0-.51.06,17.16,17.16,0,0,0-3.2,0,1.83,1.83,0,0,0-.5-.12c.14-.13,1,0,.85-.24a12.3,12.3,0,0,0-1.36.29,30.54,30.54,0,0,0-3.37-.14c-.4,0-.36-.12-.66-.18s-1,0-1.17-.19c.14-.28,1-.06,1.35,0s1.13,0,1.52,0a.84.84,0,0,0,.34-.06,5,5,0,0,1,.5.13c.2,0,.6-.07.84-.06a4.34,4.34,0,0,0,1.35,0c0,.18-.68.22,0,.3.25,0-.06-.08,0-.18.37-.07.93-.06,1-.23,1.32.1,2.19,0,3.2.2a2.62,2.62,0,0,0,1.36-.36,8.6,8.6,0,0,0,1.52.07v.24C140.59,60.24,140.87,60.21,140.83,60.05Zm-6.08.14c0,.07.18.09.33.12,0-.28-.47-.12-1-.12.14.1,0,.3.32.36C134.76,60.41,134.19,60.28,134.75,60.19Zm1.18.13c-.53,0-.46.16-.86.17,0-.06-.29-.08-.34,0,.64-.06.26.23.84.19C135.4,60.45,136,60.51,135.93,60.32Zm1.17.13c-.07-.18-.63-.18-1-.25-.15.17.23.16.15.3C136.66,60.53,136.62,60.39,137.1,60.45Zm7.23.4c.13,0,.19,0,.16.12.42,0,.87,0,.86-.23A2.18,2.18,0,0,0,144.33,60.85Zm-5.05-.21c-.54.06-1.65-.16-1.35,0S139.67,60.76,139.28,60.64Zm.53-.42c-.1-.35-1.72,0-1.86.17C138.91,60.46,138.76,60.12,139.81,60.22ZM68.58,58c.57,0,.23-.24.85-.17-.07.18-.7.15-.53.42C68.61,58.19,68.53,58.1,68.58,58Zm95,1.63c-.23.26-.84,0-1.52.06C161.7,59.53,163.22,59.61,163.62,59.59Zm-31-.13c.65-.09.32.16.84.12-.24.19-.83-.09-1,.05C131.85,59.57,132.89,59.62,132.59,59.46Zm1.16.54c.08.14-.33.09-.35.18a3.89,3.89,0,0,0-1.18,0C132.49,59.89,133,60.08,133.75,60Zm3.77-1.23h.68c-.1,0-.19.1-.18.18h.34c.21,0,.17-.12,0-.12.22-.18.64.05.84.07,0-.11-.2-.13-.16-.24a3.47,3.47,0,0,0,1.68.13c-.06.14-.8,0-.68.23a2.62,2.62,0,0,1-.5-.12.27.27,0,0,0-.18.12,13.74,13.74,0,0,0-1.51,0C137.85,58.89,137.39,58.93,137.52,58.77ZM52.16,22c0,.18-.61.21-.85.12C51.34,22,51.74,22,52.16,22ZM136.31,59.3c.7,0,1.22.25,1.52,0,.64-.06.48.15,1,.13s.89-.22,1.35-.06a3.58,3.58,0,0,1-1.36.18C138,59.52,136.46,59.58,136.31,59.3Zm-.34.06c-.15.47-1.45,0-2.2.22.21-.26.1-.07-.33-.18C134,59.1,135.08,59.57,136,59.36Zm1.32.55c.31,0,.36-.07.68-.06.26.24-.73,0-.68.18-.8-.06-1.52-.15-2.52-.14C134.49,59.72,136.82,59.9,137.29,59.91Zm25.55-4.76c-.45.25-.62.61-1.39.77-.12,0-.59,0-.85.06a4.36,4.36,0,0,1-1.52.11c-.35,0-.55.12-.86.17-2.42-.07-3.95.1-5.56,0a2.63,2.63,0,0,1,.51-.11c-.1-.19-.44-.08-.84-.07-.11-.19-1-.32-1.33-.25a4.53,4.53,0,0,0,1.5.37c-.67.15-1.25,0-2,.05.3-.2-.49-.21.35-.24a2.35,2.35,0,0,0-1-.06c0,.18.66.16.48.42h-.84c1.09-.07-.18-.39-.66-.24,0,.09.37,0,.5.06.4.12-.94,0-1.35.11-.11-.06-.39-.06-.33-.18a5.19,5.19,0,0,1-1.85-.19c.88-.09,1.91-.11,2.05-.47.18,0,.11.12.33.12.51,0-.15-.12,0-.24a11.57,11.57,0,0,0,1.36,0c.16.19-.38.11-.68.12-.17.28,1.18.14,1.35,0,.53,0,.37.18,1,.12l.52-.17c0-.14-.55,0-.51,0-.22,0-.26-.11-.5-.12a6.05,6.05,0,0,1-1.35,0L153.9,55c-.21.25-.2.42,0,.6.52,0,.5-.1,1-.05s-.45-.12-.16-.3h.85c-.06-.27-.53-.23-1.17-.19a12.39,12.39,0,0,1,2.54-.22c-.1.05-.18.1-.18.18a5.72,5.72,0,0,0,.85-.11.51.51,0,0,0-.33-.13,23.34,23.34,0,0,1,3-.22c-.19.09-.19.15.16.18s.71-.21.35-.23c0-.14.72,0,1-.06C162.29,54.67,162.34,55,162.84,55.15Zm-12,.58c0-.19-1.25-.27-1.34-.07C150,55.76,150.18,55.65,150.83,55.73Zm3,0c-.5-.16-.7-.16-.48-.48-.87-.07-.26.35-.53.36-.24-.16-1.57-.19-1.52.11.53.07.41-.1.68-.12C152.7,55.63,153.29,55.91,153.87,55.69Zm3.56-.34a2.88,2.88,0,0,0-1.18.06c-.24,0-1.09-.08-.85.11,0,.13.74,0,.83.13C156.47,55.36,157,55.51,157.43,55.35Zm-.36.36c-.06.16.35.16.67.19C157.92,55.7,157.51,55.7,157.07,55.71Zm1.21-.47a1,1,0,0,0-.69.18,2.94,2.94,0,0,0,.67.06Zm.51-.18c-.14,0-.47.42.15.36C159.2,55.43,159.33,55,158.79,55.06Zm2.37-.22c.18,0,.14-.08-.16-.06-.06.19.18.29.66.3C161.82,54.89,161.11,55,161.16,54.84ZM81.22,58.05c-.41-.08-1.31,0-1.34-.19.74,0,1,.11,1.69.07C81.52,58,81.23,58,81.22,58.05Zm-.49-.25c-.56-.13.78-.26,1-.11C81.56,57.82,80.93,57.59,80.73,57.8Zm5.57-.08a3,3,0,0,1-2,.11c-.32,0-.62.09-1,.11,0,0,.07-.06.18-.06s-.07-.06-.17-.06c.52-.27,2.21.28,2.2-.17C85.94,57.61,85.89,57.74,86.3,57.72Zm-6.92.19c-.82,0-.88.17-1.7.11,0-.25,1.07-.13,1.37-.29.26.05,1,.24.49.36,0,.19.66-.18.67,0s-.77.17-1.19.11C78.89,58,79.3,58,79.38,57.91Zm4.53.39c-1.07-.06-1.54,0-2.69-.07.15-.27.82-.35,1.7-.35.26.23-.73,0-.68.17C82.75,58.26,83.65,58,83.91,58.3Zm36.09.11c0-.1.29-.15,0-.17.26-.18.75,0,.66.18Zm-43.5-.27c.45,0,.82.1,1.68,0-.06.14-.8,0-.68.23C77.1,58.32,76.43,58.36,76.5,58.14ZM70,57.43a4.89,4.89,0,0,1,2.19,0c.14.22-.31,0-.51,0A13.38,13.38,0,0,1,70,57.43Zm15.81.83c1.07,0,.13-.39,1.2-.36-.11.17-.55.21-.53.42-.7,0-1.49.15-1.68-.13C85.27,58.24,86.19,58,85.77,58.26ZM73,57.33a15.1,15.1,0,0,1,2.19,0A8.11,8.11,0,0,1,73,57.33Zm1.82.55c.44.12.51,0,1,.07,0,.12-.63,0-.68.18C74.92,58.09,74.84,58,74.82,57.88ZM70.43,58c.06-.16-.22-.2-.66-.19.4-.27,1.34,0,2-.1.17.08.15.22.5.24s-.16-.13,0-.24a2.06,2.06,0,0,0,.67.06c.16.12-.51.2,0,.24a1.5,1.5,0,0,1-1,.06c-.34,0-.23.16-.69.11-.07-.13.25-.11.52-.11,0-.1-.16-.11-.16-.19a6.73,6.73,0,0,1-1.71.35c.44-.27-.23-.11-.67-.06,0-.11.21-.13.18-.24C69.94,57.93,69.91,58.08,70.43,58Zm6.45-.86a6.67,6.67,0,0,0,1.69,0c.3,0,.35.06.67.06s.36-.06.68,0c1.3,0,3,0,4.72,0-.06.33-1.13.1-1.52.11a4.08,4.08,0,0,1-1.19,0c-.21,0-.17.12,0,.12-.18.15-.75,0-.67-.18-1.45.06-2.49,0-3.55.09C77.4,57.35,76.94,57.33,76.88,57.18Zm44.64,1.12c-.44-.15,1-.2,1.36-.11C122.79,58.37,121.61,58.13,121.52,58.3Zm2,1.52a5.58,5.58,0,0,0-1-.13c-.08-.24,1.14.07,1,.07.14,0,.82-.06,1.35,0a8.67,8.67,0,0,0,1.35,0c0,.11.29.14.67.13a8.44,8.44,0,0,1-2-.07C124.31,59.76,123.91,59.85,123.47,59.82ZM122,58.67c.12.18-.59.07-.35.3-.29,0-.44,0-.5-.13C121.46,58.79,121.38,58.6,122,58.67Zm-.85.17c-.48,0,.18.4-.52.3-.22-.15.5-.25,0-.3C120.71,58.7,121.11,58.7,121.16,58.84Zm.62,1c.52,0,.65.19,1,.06C123.33,59.94,121.4,60.15,121.78,59.81Zm-27.34-3a7.84,7.84,0,0,0,1.18,0c0,.34-1-.08-.86.29C94.2,57.17,94.51,56.92,94.44,56.81Zm18.56,0a18.05,18.05,0,0,1,3,0,8.34,8.34,0,0,1,1.69-.11c0,.17-.65.09-1,.11s-.6.11-.85.12-.25-.06-.34-.06-.67.13-.84-.07A4.52,4.52,0,0,1,113,56.81Zm11.33,2.65a3,3,0,0,1-.85.12C123.37,59.37,124.08,59.37,124.33,59.46Zm1.73-.83a7.44,7.44,0,0,0,1,.19c-.54.45-2.07.21-3.21.22-.2,0-.15.11-.18.18-.46-.23-.91,0-1.52.05s-.44-.17-.84-.19c.56-.15,1.19.09,1.86,0,.31-.1.31-.3.86-.3,0,.1-.17.1-.18.18C124.85,58.83,126,59.12,126.06,58.63Zm-3-1.34c.18-.25.82-.24,1.53-.17.19-.11,1.45-.22,1.34.07C125,57.2,123.69,57.35,123.09,57.29Zm10.73-35.76c-.81.11-2.13,0-3,.1A15.28,15.28,0,0,1,133.82,21.53ZM58.1,61.8c.1-.2.64-.08,1-.06C59,61.94,58.47,61.83,58.1,61.8Zm1.19-.29H57.77C57.73,61.34,59.39,61.29,59.29,61.51Zm-.2.59c-.12.19-.45.08-.84.06C58.27,62,58.88,62,59.09,62.1Zm-10.25-.72c-.08.13-.83,0-1.18,0C47.82,61.2,48.34,61.39,48.84,61.38ZM59.4,62.65c1.2-.08,1.78,0,2.7,0-.26.23.75,0,.49.25-.55-.08-1.07,0-1.51-.07,0,0,0-.11,0-.12s-.67,0-.85,0,0,.09-.18.24c-.4-.2-.89,0-1.51-.13-.19,0-.1.06,0,.06-.18.18-.45-.07-.67-.06s1-.15.51-.24c.33-.14.85.1.5.24C59.05,62.76,59.51,62.81,59.4,62.65Zm3.44-1.24c-.13.21-1.23.07-1.86.11C61.34,61.26,62.17,61.55,62.84,61.41ZM46.1,62.2c0-.15-.25-.19-.49-.24a.88.88,0,0,0-.35.18,6.66,6.66,0,0,0-1.18-.07c.41-.15.09-.19.52-.3.66.1,0,.07,0,.24.59,0,.59-.27,1.53-.17-.07.33.31.17,1,.19,0,.25-.63.29-1.36.29C45.7,62.22,45.89,62.21,46.1,62.2Zm16.19.11c.19-.12.9.07,1.51,0C63.75,62.51,62.7,62.34,62.29,62.31Zm-1.73.82c0,.13-.6,0-.85.06C59.79,63,60.3,63,60.56,63.13ZM42.89,62.3a2.44,2.44,0,0,1-1,.17C41.87,62.29,42.47,62.33,42.89,62.3Zm-4.72-.09a2.09,2.09,0,0,0,.51.06,2.46,2.46,0,0,1-1,.18C37.71,62.32,38.12,62.33,38.17,62.21Zm25.34-.8c2.3,0,2.93,0,5.23.1.52.09-.61.05-1,.05l-4.55,0C63.11,61.43,63.31,61.42,63.51,61.41Zm-32.26.94c-.73,0-.64-.16-.49-.31C31.27,62,31.1,62.24,31.25,62.35ZM23.63,63c-.44,0-.73,0-.67-.19C23.4,62.82,23.69,62.86,23.63,63Zm6.58,0a17.46,17.46,0,0,1-3.37-.08c-.53,0-.39.18-1,.11,0-.05.17-.06.17-.12a9,9,0,0,0-1.86.11c.23-.29-.41-.29-.82-.37.42-.28,1.53,0,1.85.14a1.66,1.66,0,0,1,1.36-.35c.07.16-.63.05-.68.17.16.19.57,0,.68,0s.8-.08,1,0c0,0,0,.12,0,.12.22,0,.39-.09.68-.11s.24,0,.34.06.44-.14.84,0c.07,0,.27,0,.33.07S29.34,63,30.21,63Zm-.67-.19c-.76,0-1.32-.32-1.35.12C28.7,62.91,29.49,63,29.54,62.81ZM43.61,61.4c.1-.2.82-.08,1.18,0C44.71,61.49,44,61.37,43.61,61.4Zm-.35.3a12.81,12.81,0,0,1,2,0A12.81,12.81,0,0,1,43.26,61.7Zm-22.92-.44a1,1,0,0,1-.55.09l-.37,0a5.55,5.55,0,0,0-.59,0c-.29-.06,0-.07.5-.06Zm5.74,0a16,16,0,0,1-2.37.05c-.76,0-3.48-.05-2-.08C22.81,61.24,24.85,61.31,26.08,61.29Zm-7.87-41c.46.27-1.12,0-1.54.1a1.36,1.36,0,0,1,1.12-.05C18,20.31,18.2,20.32,18.21,20.25Zm2.32.19-.94-.06c-.31,0-.58,0-.93,0a3.12,3.12,0,0,1,1-.11C20.1,20.26,20.49,20.31,20.53,20.44Zm1.16.49c.41,0,0,.2,0,.24a4.26,4.26,0,0,1-.83-.13C21,20.89,21.62,21.18,21.69,20.93ZM70.08,61.57a11.27,11.27,0,0,1,2.53,0A13.12,13.12,0,0,1,70.08,61.57Zm-46.93.9c-.1.53-1.5.51-2.55.29-.23,0,0,.1.17.12a1.51,1.51,0,0,1-.79,0,5,5,0,0,0-.87-.15c-.33,0-.13.07,0,.06a14.67,14.67,0,0,1-3-.07c-.46.09-1.57,0-1.52.23a20.51,20.51,0,0,0-3.54-.08V62.6a11.06,11.06,0,0,0,.3-1.88c-.12-.58-.13,1.61-.36.81,0-.55,0-.89.12-.92,0-1.88.09-4.38,0-5.8,0-.14,0-.3,0-.37a.53.53,0,0,1,0-.16c0-.08.07-.12.14-.1a3.84,3.84,0,0,1-.11-2c-.15-.18-.1-.92-.17-1.35.13-.08.11.24.12.51.18-.43-.08-1.06.07-1.52,0-.19-.06-.09-.06,0-.23-.18,0-.27.06-.5v-.85c0-.27,0-.57,0-.84a2.64,2.64,0,0,1,.13-.5c0-.19-.16-.43-.18-.68s.07-.3.06-.51-.06-.16,0-.34a8.44,8.44,0,0,0,.07-1.51c0-.05-.08.25-.08.42a15.45,15.45,0,0,1,.09-2.27c0-.27-.06-.55-.06-.85a4.69,4.69,0,0,0,.07-.67c0-.24-.09,0-.12-.18-.07-.3.06-.86,0-1.18.1.05.13.3.11.68.1-.67.22.24.36-.15a2.35,2.35,0,0,1-.06-.34c0-.5-.13.16-.24,0s0-.36,0-.67c0-.07-.12-.48-.12-.52s.2-.76,0-.67c0-.38.11-.24.12-.5s0-.32-.12-.35a4.59,4.59,0,0,0,0-2,8.61,8.61,0,0,0,.19-1.34c-.1-.07-.11.13-.12.33-.09-.29,0-.61-.05-1.18,0-.31-.2-.11-.24-.35.09-.53-.14-.73-.17-1s0-.56,0-.84c-.1-1.21,0-3.54,0-5.4l-.05-.88a1.83,1.83,0,0,1,.11-.89c0-.62-.11-.44-.11-.9,0-2.51,0-4.54.06-6.31q.87,0,1.74.09a7.75,7.75,0,0,1-1.62,0,11.61,11.61,0,0,0,0,1.76c.21.56.12-.88.12-1.56v-.06c.34,0,.86.06.82.06.65,0,.85-.14,1.31-.11a15.64,15.64,0,0,0,4.18,0c.62,0,1.21,0,1.78,0h1.1a7.2,7.2,0,0,1,1.66.12,19,19,0,0,1,4,0c.38-.25,1.68-.05,2.87-.05.9,0,1.77-.11,2.53-.1l3,0a10.46,10.46,0,0,0,2.53,0c.43.19.8,0,1.35,0a5,5,0,0,1,.5.07c.93,0,2.1-.09,3.21-.1.6,0,1.14.08,1.68.07.35,0,.66-.1,1-.11s.78.07,1.18.06a8.73,8.73,0,0,1,1.69-.05c.16,0,.13-.07.17-.11a8.89,8.89,0,0,0,1.35.06,4.19,4.19,0,0,0,1.84.32c.33.18-.71.28-.54.59s.88,0,1.18,0,0-.09.18-.24c.64,0,.36.23.83.25.63.07.49-.15,1-.12,0,.11.2.13.16.24.58.06.65-.08,1.18-.05,0,.1-.17.1-.18.18a3.63,3.63,0,0,1,1.52.07c.2,0,.08-.07,0-.06a7.11,7.11,0,0,1,2,.07c.32,0,.13-.17.51-.05a2.77,2.77,0,0,0,1-.24c.23.06.21.21.5.25a2,2,0,0,1,.5-.06c0-.14-.28-.18-.15-.36.44,0,.21,0,.17.12.47.07.44-.1.84-.05s.83.49,1.18.12c0-.07-.5-.08-.51,0-.27-.06-.17-.26-.32-.36a8,8,0,0,1,1.35-.05c-.07.13-.92,0-.85.17a4.48,4.48,0,0,0,2.2-.17c.55.07,1.61,0,1.51.25.63.07.49-.14,1-.11.3,0-.11.06-.34.06.06.19,1.06.25.48.48a2.76,2.76,0,0,0,1.18,0,3.22,3.22,0,0,0-.84-.13c.28-.08-.25-.34.52-.35s-.18.08,0,.24c.57,0,.74-.2,1,0,.51,0-.15-.13,0-.24a9.25,9.25,0,0,0,1.68.07c.32.1-.31.26.32.31.29,0,.44,0,.51-.12s-.5,0-.5-.12c-.16-.21.53-.09.85-.12-.14-.23-.67-.05-1.17-.07.29-.31,1.15-.06,2-.1-.07.08-.31.09-.35.18,1.1-.11,1.07.18,1.5.31a1.59,1.59,0,0,1,.34-.06c-.24-.19-.71-.31-.81-.55.36.05.66.13.65.31a1.16,1.16,0,0,0,.86-.18c.22,0,.3.13.32.24.54,0,.21-.13,1-.05.26,0,.67,0,.67.12.62,0-.07-.18.35-.29h-.51c.18-.11,1.23,0,1,.19.76,0,1,.09,1.69.07-.4-.12-1.79-.14-1.33-.37.47,0,.38.19.83.19a2.63,2.63,0,0,1,.34-.06c0-.11-.2-.13-.16-.24a3,3,0,0,0-.67.05c-.3-.15,1-.1,1.35,0,0,.11-.22.13-.19.24a3.9,3.9,0,0,1,2,.14c.33-.11-.13-.21-.32-.31.94-.16,1.73.35,2.86.14.52,0,.2.21.84.13s.35-.16.68-.18a16.66,16.66,0,0,1,1.85.19c.17,0,.18-.13.51-.11s.23-.2.52-.24c-.19-.08-.14-.12.17-.12,0,.18-.49.36.15.42.43,0-.23-.1,0-.24a14.33,14.33,0,0,0,1.52-.11c.63,0,1.06.21,1.85.19.4,0-.08-.27.51-.17s.08.07.17.12.54,0,.49.18c.69-.07.22-.2.53-.36a7.16,7.16,0,0,0,1.85,0c.36.12,0,.19-.18.3a5.52,5.52,0,0,0,1.69-.05c-.16.2.1.26-.53.35.05.08.42.05.68.07s.08-.26.18-.36c.52,0,.42-.22,1-.18.2,0,.15-.1.18-.17,1.09.09,2.11,0,3,.08.17,0,.14-.08.18-.12.7,0,1.23,0,1.68,0,0,0,0,.11,0,.12s.66,0,.84,0,.12-.12.34-.12c.22-.19-.54,0-.32-.24.76-.16.4.36,1.34.13,0,.1-.16.1-.18.18.52.08,1-.17,1.18,0,.2,0,.15-.11.18-.18a12.44,12.44,0,0,0,2.53-.05c0,.09-.5,0-.51.12.21.2,1.86-.23.69-.17.07-.14.83,0,1.18-.06-.08.13.11.16.16.24s.09,0,0-.06c.41-.2,1.62.21,1.86-.1.53,0,.37.18,1,.12.09-.12-.23-.11-.5-.12a2.51,2.51,0,0,1,1.18.07c.29,0-.21-.21.52-.18.36,0,.31.09.32.18a13.39,13.39,0,0,0,1.7-.17c.1,0,.2.06.33.07a.89.89,0,0,0,.34-.06c.42,0,1.15,0,1.86,0,.31,0,.86,0,1.18,0s.83-.16,1.18,0a1.71,1.71,0,0,0,.67.06.93.93,0,0,0,.18-.12c.06,0,1.17.29,1.35-.05l2-.05c.2,0,.73,0,.68,0,.22,0,.26.12.5.12.54,0,.47-.2.84,0l.52-.18c2.49,0,4.92-.06,7.09-.2a.74.74,0,0,1,.33.19,36.82,36.82,0,0,1,4.91-.33c.44,0,.14-.23.68-.18-.09.19.2.25.49.31.14-.19-.45-.12-.32-.31.42,0,.82,0,.84.13.23,0,.32-.13.35-.24,1.17,0,1.57,0,2.86,0-.47.27-.44.31-.54.66.36,0,.33-.09.35-.18.47,0,.46.23.66.36.83-.11,1.56.12,2-.1.37,0,.23.11.5.12s.12-.12.34-.12c.59,0,.64.09,1.18.07.09.12.25.23.83.18.4-.19-1.38-.07-.33-.18a4.37,4.37,0,0,1,.68,0c.41,0,.51-.11.68-.12s.35.06.67.06c1.31,0,2.95-.1,3.71,0,.2,0,.15-.11.18-.18a6.76,6.76,0,0,0,.7.05h1.11c1,0,1.93-.1,2.68-.2s.93.06,1.44.06a5.66,5.66,0,0,0,1-.11c.37,0,.33.11.5.12s1.41,0,1.52,0l1.23-.06c0,.17,0,.37,0,.61a2.14,2.14,0,0,0,.06-.67H167c-.27,0,.09-.07.65-.06l0,2.14c-.14-.59-.19,1-.29-.09-.17.38.15.44,0,1.43.14.33.23-.9.24-.14,0,1.19-.09,0-.18.69,0,.57.14.3.18.52s-.08,1.62.11,1.17c0,.84,0,1.56,0,2.24l-.05,1.64c-.19-.09-.24.36-.36,0a16.22,16.22,0,0,0,0,3c0,.14.05.15.12.17a31.11,31.11,0,0,0,0,3.71c-.05.73-.17,1.83.11,1.86a8.93,8.93,0,0,0,0,1.36c0,.32-.08.74-.07,1s.11.4.12.52c.07.67,0,1.5,0,2.19s0,1.63,0,2.53c0,.58.16,1,.17,1.53a14.49,14.49,0,0,0,.05,1.86c-.18-.13-.22.16-.36.15.05-.63-.23-.38-.24-.86-.16.15.08.53,0,1-.19-.43-.53-.58-.66.13,0,.09.11.38.11.51,0,.36,0,1.17,0,1.86a4.86,4.86,0,0,1,0,1.52,18.88,18.88,0,0,1,.22,3.21c0,.34.14.51.18.86a22.4,22.4,0,0,1-.08,2.86c-.23-.1-.25.42-.43.48-.09.93-.48,1-.61,1.83-.22-.35-.24,0-.3.49-.29-.64-.42.42-.66.47,0-.27-.06-.29-.06-.51-.08.05-.05.42-.07.67-.14-.41-.19-.08-.29-.52-.1-.07-.12.13-.12.33,0-.22-.17-.13-.24-.35,0,0,0-.3,0-.33s-.27.07-.3-.19.09-.19.06-.33a1.15,1.15,0,0,0-.29-.69c0-.58-.09-.65-.05-1.18,0-.2-.11-.15-.18-.18a27.34,27.34,0,0,1,.5-3V51.78c-.36-.08-.49.5-.78.63,0-1.12-.37.1-.54-.36v-.68c-.14,0-.18.29-.36.15l.07-1.85a1,1,0,0,0,.24-.66c0-.59-.16,0-.18-.35V48h.24c-.07-.67.19-1.16-.05-1.35-.1,0,.11,1-.19.83l0-5.22c0-.23-.11-.27-.12-.51-.14,0-.18.28-.36.15a5.75,5.75,0,0,1-.11-1.7c-.18-.18-.11.37-.13.67,0,.53-.07-.3,0-.51.07-1.16-.14-3.15.2-3.53a2.64,2.64,0,0,1-.17-1.36c.09.05,0,.51.12.51s.06-.16.12-.16c0-.4-.08-.79-.24-.85-.05-1.18.17-2.09,0-3,.18.87.15-.7,0-.84,0-1.06,0-2.29,0-3.2,0-.62,0-1.28,0-1.95l0-1.78a9.42,9.42,0,0,0-.1-2.26c0-.24.1-.11.17-.14a.48.48,0,0,1,.07-.29c0-.24-.06-.23-.09-.32a.66.66,0,0,1-.21,0c-.21,0-.38-.13-.6-.13s-.41.14-.66.12-.34-.06-.26-.19c-.3.07-.4.26-.9.18,0-.07.25,0,.28-.12s-.51,0-.83-.07l-.24-.12c-1.16-.07-2.58.09-3.34,0a.88.88,0,0,0-.35.17,9,9,0,0,0-2.7,0v-.18c-.37,0-.91,0-1,.17-.51-.06.2-.16.18-.24a5,5,0,0,0-1.19.17,8.67,8.67,0,0,0-2.36.11c-.25,0-.42-.09-.67-.13a50.27,50.27,0,0,1-7.94.19c-.41.06-.82.11-1.19.18-.67-.05-1.2-.14-2-.14v-.24a4.87,4.87,0,0,1-2.2.11c.21-.16.88,0,1.18,0s.39-.27,1-.24a1.36,1.36,0,0,0-.66-.12c.54-.1.27-.37.53-.48a14.08,14.08,0,0,1,2.37-.22c.32,0,.72,0,.66.18.26,0,.43-.08.68-.11,0-.11-.28-.14-.66-.13a7.6,7.6,0,0,1,2,0c-.2.19-.09.16.15.31.42,0,.58-.23,1-.06,0-.07,0-.1.17-.12,0-.18-1.39.09-1.17-.18a15.4,15.4,0,0,1,2,.07c.64,0,0-.21.35-.3a4.25,4.25,0,0,1-1.34,0c0-.11.12-.2.34-.24a1,1,0,0,0-.49-.18c-.62.11.29.17.15.3-.36,0-.32.09-.34.18a6.94,6.94,0,0,1-1-.07c0-.08.42,0,.67,0-.24-.27-.9,0-1.18.11a3.05,3.05,0,0,1-1.17-.25c-.35,0-.06.31-.69.24a.92.92,0,0,1-.49-.3c-.23.05-.23.2-.52.23-1.58,0-3.7-.05-5.73,0-.39,0-.2.17-.51.17a1.34,1.34,0,0,0,.66.13c-.47.19.18.37.31.54h-.67c.25-.18.16-.34-.49-.36-.13.19.58.08.32.3a3.17,3.17,0,0,0-1.68.05c.29.13.64,0,1,0a12.3,12.3,0,0,1,1.5.25c-.24.08-.62.31,0,.36a13.5,13.5,0,0,0-1.53.29c-.46,0-.33-.12-.67-.13a10.39,10.39,0,0,0-1.35.06c-.28,0-.29-.07-.5-.07-.58,0-1,.08-1.52,0-1-.06-3.12,0-4.22,0-.31,0-.83-.17-1,.05-.46,0-.34-.12-.67-.13s-.32.05-.34.12c-.55,0-.22-.2-.67-.18-.61,0-.94.14-1.35,0-.2,0-.15.11-.18.18a10,10,0,0,0-2.18-.14,1,1,0,0,0-.35.18c-1.86,0-6.47-.07-9.61,0-.48,0-.84.09-1.36.11-1.1,0-2.15-.07-3,0,.86.06.59.17-.35.18.54,0-3.46-.05-4.89,0-.28,0-.28-.06-.5-.06s-.76.06-1.19,0-.65-.07-.84-.07a7.23,7.23,0,0,1-1.52.11,2,2,0,0,1-.5-.12c-.26,0-.56.15-.85.17-.09,0-.3-.06-.5-.06-.44,0-.89.11-1.36.11s-2.25-.06-2.87,0c-.18,0-.17.16-.51.12,0-.1.17-.1.18-.18-.3,0-.36.07-.68.06,0,.07,0,.1.17.12-.09.16-.54,0-.34-.12a3.41,3.41,0,0,1-1,.05c-.13,0-.93.11-1.19.11s-.64-.07-1-.06c-1,0-2.3.06-3.2,0-.43,0-.93.11-1.36.12a3,3,0,0,1-.5-.07c-.5,0-1,.07-1.35.05s-.62-.1-.84-.12-.79-.07-1-.07-.44.12-.51.12c-.28,0-.28-.06-.5-.06s-.36.06-.68.05-.68-.07-1-.06a11.15,11.15,0,0,1-2.7,0,10.63,10.63,0,0,1-2.37.16c-.24,0-.59-.07-.84-.06-1.81,0-3.68.18-5.23.08a2.4,2.4,0,0,0-1-.06c0,.07.3.05.5.06-.37.1-1.94.12-1.85-.13-.12.15-.41.06-1,.11a4.69,4.69,0,0,1-1.53.11c-.07-.13.25-.11.51-.11-.1-.06-.38-.23.18-.18-.1-.18-.36.05-.67,0q.2-.07.18-.24c-.48,0-.44.09-.85.06.2-.24-.5-.3-.83-.19.2.21.92.24,1,.49-.26.09-.72.1-.86.23-.24-.07-.24-.23-.49-.3-.49,0-.42.28.16.24A1,1,0,0,1,52,21.78c-.32.13-1,.12-.86.42-.24,0-.48,0-.51.06-.34-.12-1.11-.1-1.17-.31.44,0,.85,0,.67.18H51c.15-.23-.81-.08-.66-.31a1.48,1.48,0,0,1,.84.07c0-.2-.74-.18-.82-.37-.52,0-.77.21-1.19.06,0-.28,1.24-.44,1-.6.39-.11.9.06,1.52,0-.29.12,0,.08,0,.24.8,0,.35-.4,1.2-.35.43,0,.21.05.17.12.37,0,.24-.11.51-.12.77-.06.65.17,1.34.13s-.34-.15-.15-.3c.09.11.8,0,.83.13.41,0-.18-.17-.32-.19A12.71,12.71,0,0,0,57,20.5c-.31-.21-.6.09-1,.05-.06-.14-.73-.17-.32-.3-.76-.08-.67.16-1.35.11s-.13-.15-.84-.07c-.34,0-.53.11-.85.12a6.81,6.81,0,0,0-1.17-.19c-.58.06.46,0,.16.18-.66.19-2.11-.12-2.37.11A2.74,2.74,0,0,0,48,20.38c.31-.32.94.13,1.36-.05-.58-.24-1.37-.4-2-.62-.61.2.43.33.83.37-.08.21-1.31,0-1,.35-.29,0-.44,0-.5-.12a6.45,6.45,0,0,1-1.86.11c0-.13.75,0,.68-.18-.36-.07-.77-.13-1.17-.19s-.34.2-.36.36c-.4,0-1.22.07-1.34-.07s.73.08,1-.11c-.47-.28-1,.06-1.52-.07,0,.11.2.13.16.24H40.77c-.51-.13,1.21,0,1-.17a9.28,9.28,0,0,0-1.86.05c.9.2-.93.08-1.52.11s.86-.05,1.18-.06c-.23-.25-1.3-.06-1.68,0a4.61,4.61,0,0,0-2.19-.07,8.34,8.34,0,0,0,1.68.07c0,.13-.6,0-.84.05a4.23,4.23,0,0,0-1.53.11,22.37,22.37,0,0,0-2.86-.13c-.18,0-.12.12-.34.11-.45,0-.55-.08-.49-.24-1.15.19-1.85-.13-2.87,0-.33-.12.08-.11.18-.24-.27,0-.29-.06-.5-.06s-.23.18,0,.18a6.62,6.62,0,0,1-1.87.17c0,.08,0,.17.16.18-.39.11-.9-.06-1.52,0,.37-.13.08-.33-.32-.36.12-.18.36.06.68,0,0-.13-.13-.19-.5-.18-.74.05.08.31-.36.42a9.27,9.27,0,0,0-1.85-.14V20c-.84,0-1.09.21-2,.17.25-.15-.27-.14-.33-.18s.12-.25-.32-.24.6.18.31.42c-.66,0-.49-.23-1.13-.19-.21,0,0,.11.16.12-.31.16-.65-.06-1.07-.06s-.79.1-1.16.11a4.55,4.55,0,0,0-1,0c-.11-.1.07-.1,0-.18-.49,0-.44.19-.88.05-.17-.13.39-.06.32-.17-.53-.06-.41.07-.63.11a.74.74,0,0,1,0,.21c.06,0,.09,0,.12-.09.24.06.51.11.61.24a2.3,2.3,0,0,0-.36,0,.37.37,0,0,1,0,.2s-.09-.31-.12-.27a2.27,2.27,0,0,0-.31,1.25c0,.46.14-.37.24.17l-.13,1.14-.18-.08c-.08.31,0,.36,0,.63-.05.55-.22.57,0,1,.06-.33.22-1,.24-.13A7.7,7.7,0,0,0,15,22.62c.21.05.11.7.12,1.07V25h-.3c0,.7.11.92.29.68v1c-.08-.07-.1-.31-.18-.35,0,.77-.11,1-.07,1.85,0,0-.06-.17-.12-.17-.08,1.3,0,2-.08,3.2.21.15.28.66.23,1.53.23,0-.06-1,.13-1.35a10.8,10.8,0,0,1,0,1.86c-.1.06-.11-.14-.11-.34-.07.59-.23,0-.31.32-.05.78.16-.22.18.35.07.76-.27.36-.19,1.17,0,.32.23-.25.3.18-.15.4.11,1.45-.12,1a11.73,11.73,0,0,1,0,2.36c.29.26.16-.7.19-1.17.23.15,0,.73.05,1.18a6.62,6.62,0,0,1,.12,1c-.21.16-.2-.24-.18-.68-.13,0-.13.42-.13.83-.15-.09-.2-.23-.3.16,0,.22.26-.19.3.35.15.19.22-.71.3-.15s0,.2-.12.16a15.17,15.17,0,0,1,0,2c-.3,0,.09-.85-.18-.85-.17.35,0,.49-.12,1s.2,0,.18,0c.2.16,0,.6.23.51,0,.63.15,1.08,0,1.52a16.69,16.69,0,0,1,.1,3.21,3.65,3.65,0,0,1-.06,1.35c0,.18.11.12.11.34-.06,2.17.13,3.44,0,5.23,0,.18.12.1.12.29s-.11.3-.07.68c-.22.19-.19-.26-.29-.39a3.06,3.06,0,0,0,.16-.58,2,2,0,0,0,0-.85c-.17.08,0,.62-.12,1,0,.08-.17.08-.18.15-.06.27,0,.6-.07.93.19.15,0-.5.24-.34s.2,1,.3.36c.08.06.14,1.16-.07,1.13a5.51,5.51,0,0,1,.07,1.85q.45,0,1,0c.63,0,1.35,0,2,0l2-.07c.46,0,.34.13.67.13a4.33,4.33,0,0,1,.84,0c.28,0,.27-.2.85-.11.31.2-.29.11-.51.18s-.24.16-.35.17-.94-.17-.85.06.25,0,.51,0c.07,0,.11.3.66.19.08-.15-.76,0-.49-.19.8-.06,1.79.15,2.52.14,0-.22-1.1-.06-1.34-.19s.38-.19.36-.36a31.2,31.2,0,0,1,4.37.15,11.85,11.85,0,0,1,3.21-.1c.14-.22-.17-.29-.65-.3.06-.14.73-.06.85-.18s-.48,0-.68,0c-.55,0-1.15-.08-1.85-.07-.18,0-.12.12-.34.11a4.06,4.06,0,0,1-1.18-.12c-.38,0,.2.09-.17.18-1.15-.13-2.44.07-3.54-.09.47-.2-.94-.16-1-.36-.44,0,.15.33-.51.23,0,.07.3.06.5.07.53,0-.3.07-.51,0A4.64,4.64,0,0,0,20.51,58c-.18.18.37.1.67.12,0,.2-.5.05-.85.05-.81,0-1.52.1-2.19,0,0-.13.21-.12.4-.12-.12-.29-.65,0-.89.11-.95,0-.84-.28-1.61-.26v-.06a.24.24,0,0,0-.12.18c.12,0,.58,0,.74,0a3.79,3.79,0,0,1-.87.12c0-.75.14-1.66.09-2.18,0-.08-.12-.18-.12-.2,0-.19.12,0,.12,0,0-.23-.12-.48-.12-.7a1.5,1.5,0,0,1,.11-.52,2,2,0,0,0,.08-.61c0-.19-.11-.14-.18-.17a31.64,31.64,0,0,1,.09-4.05c0-.2-.07-.07-.06,0a8.38,8.38,0,0,1,.08-2.53,8.22,8.22,0,0,0-.18-1c0-1.35.18-3.2.33-4.7.28-.22.37-.71.61-.65-.06-1.45,0-2.12,0-3.54a.77.77,0,0,0-.18-.34,3,3,0,0,1,.07-.84c0-.41-.17.18-.19.32-.07.77.25,1,.06,1.52a4.59,4.59,0,0,1-.17-1.52.51.51,0,0,0-.13.33c-.1-.11,0-.26,0-.34s.08-.44.25-.32c0-.22,0-.46,0-.68a2,2,0,0,1,.12-.5c0-.3-.19-.33-.11-.85.22,0,.15-.93.37-1-.07-.52-.23.24-.3-.18s.08-.82.18-.5c-.18-.42.16-1.24-.17-1.19s.18.8,0,.84-.09-.73-.11-1-.11-.44-.12-.52a9.44,9.44,0,0,1,.14-2.69c-.09-.45.05-1.19,0-1.85a6.31,6.31,0,0,0-.17-1,13.64,13.64,0,0,0,0,2A3.42,3.42,0,0,1,16,25.41a7.92,7.92,0,0,1,.05-.85,3,3,0,0,0,0-.74c.19,0,.12.32.24.38-.06-.33-.19-.56-.24-.93.19-.16.06-.46.13-.91-.16-.15.05.64-.18.31,0-.36.07-.81-.11-1a3.91,3.91,0,0,1,.15-.41,1.38,1.38,0,0,1,.39.16c.11-.05.39,0,.14-.23.25-.07.62.19.42-.06.43,0,.57.22.84.31s-.34-.12-.25-.3a4.31,4.31,0,0,0,1.15.08,6.84,6.84,0,0,1,1.21,0c.18,0,.18-.14.52-.12-.46.26.38.11.49.3.2-.11,1.38-.17,1-.29.18-.2.33.07.51.06.47-.05-.24-.16.18-.23,1.63,0,3.08,0,4.38,0,.28,0,.29.07.51.07a12.28,12.28,0,0,1,1.35-.11,1.45,1.45,0,0,1,.67.12l2-.05a9.47,9.47,0,0,1,4.19.45c-.07.24,0,.44.48.48,0,.11-.3.14-.68.12.36.12-.41.46.48.48-.58,0-.55.31-.86.42-.14.05-.68-.05-.51.11-1.71-.16-3.66-.11-5.39-.21-.28,0-.52-.12-.84-.13s-.87.08-1.35.05c-.29,0-.36-.06-.67-.06-.59,0-.94.19-1.35,0-.18,0-.12.12-.34.12-.46,0-.92,0-1.35,0a3,3,0,0,1-.5-.12c-.18,0-.32.1-.51.11-.4,0-.84-.07-1.18-.06s-.39.09-.68.11a3.63,3.63,0,0,1-1.32-.07c-.12,0-.12.05-.11.12a5.48,5.48,0,0,0-1.42,0c-.21-.09-.11-.24-.41-.3h0c.07.28.23.14.3.36a6.8,6.8,0,0,0,0,1.11.27.27,0,0,1-.11-.25c-.24.14.15.4.17.39.05.3-.15-.13-.18.08s.08.14.18.16V25c-.12.27-.08,0-.24,0v.5c0,.36.26-.61.24.35,0,.69-.08,0-.24.16,0,.46-.1.33,0,.67s.25.09.36.19V28a.24.24,0,0,0-.24-.18c.08.22,0,.89.24.69a2.71,2.71,0,0,1-.26,1.67c0,.32.3.79,0,.84.05.47.25-.38.18.52a.58.58,0,0,0,.12-.33c0,.09.18,1.54-.13,1.17,0,.52.21.42.17,1h-.18c.11.11.1.52.18.69a1.39,1.39,0,0,1-.25.83c.28,0,.14,1.26.17,1.52a1.06,1.06,0,0,0,.07-.5,26.64,26.64,0,0,1,0,3.21,2.58,2.58,0,0,0-.55,1.15c0,.51.16.33.11.85.23-.49.27.54.37-.15.12.21,0,1.19.29.86.15,2-.05,4.6,0,6.41-.22-.12-.1-1-.11-1.7a14.29,14.29,0,0,0-.05-1.69c-.09.32-.1.85-.25,1,0,.68.25.43.24,1h-.12a5.39,5.39,0,0,1-.19,1.68c0,.18.12.12.11.34v1.18c-.09.41-.12.1-.19.33,0,.67.1-.05.18.35s-.06,1.05.18.85a13.9,13.9,0,0,0-.07,1.76v1.13s0,.08,0,.12a.29.29,0,0,1-.06-.19c0-.21,0-.45,0-.7,0-.5,0-1,0-1.45-.09-.2-.14-.5-.29-.52,0,.44,0,.72.17.68a18.62,18.62,0,0,0,0,2c-.08-.17-.1,0-.18,0,.06.59.08,1.12.09,1.85-.08.25-.18,0-.24.29,0,.05,0,.07,0,.08.19-.06.17-.29.48-.22,0,.14-.35.3-.61.35h0l-.05.06c-.05.16.47,0,.57-.22.12,0,.29,0,.19-.06H19l2.25,0c2,0,4,0,5.61,0,.19,0,.1-.06,0-.06.39,0,1.09,0,1.86-.05.09.19-.61.08-.18.24a2.5,2.5,0,0,0,.84.06c.43.07-.61,0-.85.12.64.07,1.16.19,1.84.25.19-.28.81-.4,1.38-.53.41,0,.86.05.83.24a24.4,24.4,0,0,1,3.37,0c.13.06.18.14.16.25.36,0,.33-.09.35-.18.77.06,1.67,0,2.69,0,1.5,0,3,.16,4.21.2.61,0,1.21-.11,1.51.07.23,0,.28-.1.52-.11a2.23,2.23,0,0,1,.83.18,51.44,51.44,0,0,1,5.23,0c.41.15-.26.11-.18.3.81,0,.66-.37,1.7-.29-.16.11-.48.15-.36.36.61.05.67-.24,1.19,0-.12.12-.79,0-.86.17.39.14.89-.2,1.7-.11,0,.16-.25.2-.69.18.31.21.6-.1,1-.05,0,.12.74,0,.84.12a4.32,4.32,0,0,1,1.53-.29c-.18.08-.18.22-.35.3s-.36-.08-.68-.06c-.1.28.95.17,1.35.12,0,.18-.39.19-.36.36.26-.06.42-.17.69-.23.59,0,.58.15.83.24a11.43,11.43,0,0,1-3.37-.08c-.38,0,.2.09-.18.18A14.48,14.48,0,0,1,53,58.34c-.16,0-.13.08-.17.12a7.94,7.94,0,0,0-2.37,0,9.53,9.53,0,0,0-2.86,0,5.51,5.51,0,0,0-1.51-.19c0,.23.67.2,1,.31-.23.24-.34,0-.84,0s-.09.21-.18.3A4,4,0,0,0,48,58.67c2.12.07,3.34,0,4.88.09-.41.07-.34.33-.86.36.06.13.9,0,1,.12.06-.12,0-.18-.33-.18,0-.18.84-.09,1.35-.11,0,.1-.09.23.16.24.61.06.09-.29.85-.17-.3.19-.3.14.16.3.28,0,.11-.14-.17-.12,0-.09.51,0,.52-.12.39.1.78.17.48.36.69,0,.69-.19,1.53-.11.66,0,.5.26,1.16.25.48-.08,1-.14.7-.35.93,0,1.4-.1,1.36-.3.48,0,.43.09.84.07.07.13-.25.11-.51.12,0,.17.37.22.66.3a2.25,2.25,0,0,1,1.18,0c.2.19-.55,0-.35.24,0,.14.46,0,.34-.12a14.36,14.36,0,0,1,1.52,0c.06-.14,0-.23-.15-.3a5.13,5.13,0,0,1-1.18,0c.12-.3-.9-.2-.82-.49,1.93.07,5.33,0,7.08.11,0,.27-.4.06-.68.06l-5.06,0c.46.12,1.33.1,1.5.31.58,0,.23-.24.86-.17.37,0,.23.11.49.12A.47.47,0,0,0,67,59c.08,0,.21.06.33.07a.89.89,0,0,0,.34-.06,11.4,11.4,0,0,0,2.19,0c.29,0,.32.05.33.13.51,0-.15-.13,0-.24.42,0,.4.13.66.18s.09-.21.18-.3c1.34,0,2.58-.1,3.72-.1.19,0,.25.12.33.13s.73-.05,1-.06a2.85,2.85,0,0,0,1,0c.14,0,.46,0,.5.12.85-.17,2.77,0,4-.09.14.19-.44.12-.51.24a8,8,0,0,0-1.69,0c-.33,0-.15.24-.68.18.51.21,1-.11,1.52-.11.17.14,1.13,0,1,.25.3-.09-.16-.26.35-.36s.44.09.85.06c.17-.18-.38-.1-.67-.12a5.62,5.62,0,0,1,1.69-.17c.48,0,1,0,1.35,0a2,2,0,0,1,.5.12c.2,0,.24-.11.34-.12.38,0,.66.15,1,0,.29,0,.31,0,.33.12.49,0,.52-.13,1-.11,0,.11-.3.13-.68.12.1.12.5.14.66.24.39,0,.79,0,.69-.24.11,0,1,.17.84-.05s-.65.08-1.18,0a3.08,3.08,0,0,1,.85-.11c-.1-.19-.9-.13-1-.31A2.43,2.43,0,0,1,87,58.2c.08-.13.71.24.85-.05,0-.08-.33-.06-.34,0-.54-.15.8-.39-.49-.37.09-.28,1.35.14,1.53-.17a11.12,11.12,0,0,0-1.85-.19c-.49,0,.22.15,0,.3-.43,0-.42-.25-.66-.36a2.62,2.62,0,0,1-1,0c.63-.3,1.76-.05,2.88-.16-.08.09-.54.05-.35.24.65,0,.28-.26,1-.18,0-.07,0-.1-.17-.12.57-.12,1.26-.19,1.38-.47.54,0,.51.1.83.13.75.05,1-.08,1.69,0,0,.13-.14.19-.51.17.49.3,1.79,0,1.83.37.72-.07,0-.34-.31-.42,0-.13.6,0,.85,0-.52.18.24.26.31.42a10.83,10.83,0,0,1,2.38-.34c.46,0,.32.12.5.18a2.35,2.35,0,0,1,.34-.06c.35-.07-.48-.16.18-.24.36,0,.31.09.33.18a8.34,8.34,0,0,1,1.69-.16c.44,0,.46.19,1.18.12,0-.07-.31,0-.51-.06.51-.18,2.37,0,3.38-.1.34.06.13.31.66.31.25,0-.06-.08,0-.18,1,0,2,0,2.7-.05,0,.18.2.29.83.25-.11-.06-.38-.07-.33-.18.34-.07.26.11.33.12.36,0,.78-.17,1.18,0a8.64,8.64,0,0,1-2,.1c-.4,0-.33.21-.86.18.53-.23-1.22-.06-1.51-.19l-.51.17c-.42,0-.42-.25-.66-.36-.51.17-.58-.15-1.34-.07-.25.36,1,.25.48.54-.44-.1-.85-.22-.82-.48-.73-.06-.78.16-.35.24-.12.1-.39,0-.34-.07a4,4,0,0,1-1.17-.12c-.33,0-.26.27.16.18-.23.18-.74-.12-1,.05,0,.1.16.11.16.18.29-.08,1.08,0,1-.17.68-.06.5.18,1.18.13.08.13-.33.08-.35.17s.31,0,.34,0c.22,0,.27.13.5.12a5.38,5.38,0,0,1,.85-.11c.23,0,.15-.15.18-.24a3.19,3.19,0,0,1,1.17.24c.53,0,.48-.14.69-.23a4.2,4.2,0,0,1,.82.36,6.43,6.43,0,0,1,2.21-.28c-.17.21.66.09,1,.12.53,0,.35-.31,1.2-.23a2,2,0,0,1-.51.12c0,.14.73,0,.84,0-.13,0-.19-.12-.33-.18-.46-.18-.8-.07-.49-.24h-1.52c.3-.21,1,0,1.86,0,.59,0,1.65,0,2.69,0-.13.18.16.22.15.36.88.08,1.28,0,2,.07-.09.14-.31.21-.69.24.47.19.75-.21,1.19-.23.6,0,.4.21,1,.18.32,0,0-.25-.49-.18.35-.3.59.09,1,.13.69-.07.22-.21.53-.36.66,0-.22.26.49.3.1-.14.86-.05.69-.29.51.11,1.45-.06,1,.12.46,0,1.34.09,1.52-.05.3.05,0,.11,0,.18.54.06.25-.19.52-.23.27.22.46-.11,1.35,0a2.36,2.36,0,0,1-.52.3c-3.18-.09-4.46.18-7.26.19-.24,0,0,.11.16.13-.6,0-1.23.12-1.69.1-.14,0-.29-.11-.5-.12s-.41,0-.34.06c-.27,0,.23-.17-.67-.12.3-.38,1.17-.09,1.69-.17a11.9,11.9,0,0,0-3-.38c.09-.05.18-.1.18-.18-.69,0-.4.29-.2.48.74.06.57-.2,1.19-.18-.1.28-.77.55.31.61a34.51,34.51,0,0,1-4.89,0,12.88,12.88,0,0,1-2.71.11c-.32,0-.14.23-.68.17a.73.73,0,0,1-.49-.42c-.81,0-.64,0-1.69,0-.07.12.11.16.16.24.27-.12,1-.1,1.19-.23,1,.39-.7.51-1.54.41a.7.7,0,0,0,.18-.12c-.08,0-1,0-.85.11-1,0-3.06,0-4.56.09-1,.06-2.14,0-3,0-.44,0-1,.16-1.53.17a5.66,5.66,0,0,0-1.69.17c.08.21,1,.14,1,.37a3.87,3.87,0,0,1,2.18.19,2.37,2.37,0,0,1,1.37-.35c.15-.17-.23-.15-.16-.3,1-.06.53.34.32.48.15,0,.85,0,1.34.07.33,0-.25-.22.19-.3-.07-.11-.82.2-1.18,0,.17-.08.46-.12.52-.24,1.22.09,2.67,0,4.55,0,.53.12-1.05,0-.86.17,0,.16.56.13,1,.13s.14-.23.68-.18c-.41.18.21.24.5.19s0-.27.34-.06a1.63,1.63,0,0,0,1.18.13c-.17-.12-.74-.1-.66-.31.53,0,.43.17.83.19a2.63,2.63,0,0,1,.34-.06c.13-.16-.34-.12-.5-.18s.5-.06.51-.06c.39,0,.4-.1.68-.11.75,0,1.77,0,2.7,0-.43.16-.65,0-1.35,0,0,.16.56.13,1,.13,0,.18.38.23.66.3.56-.1-.43-.16-.15-.36,1,0,.66.37,1.16.49a10.12,10.12,0,0,1,1.51.13c.31,0,.11-.2.35-.24.87,0,.69.28,1.68.19-.11.28.62.26.48.55a2.64,2.64,0,0,0-1.53.17c.05.08.42.05.67.06a.24.24,0,0,0-.18.24c-.37,0-.53-.05-.5-.18-.24,0-.42.23-.51,0s-.14-.13.35-.11c-.31-.11-.16-.32.18-.36-.22-.18-.58.1-1,0,0-.14-.26-.23-.15-.42-.51,0-.18.3-.69.3-.06.15.65,0,.5.24-.25,0-.88.06-.84-.07a2.14,2.14,0,0,1-1,.18c.29-.2.22-.37-.66-.31-.44-.14.45-.16,0-.3a1.42,1.42,0,0,1-.85.12c.07-.1-.12-.12-.33-.13.12-.13.35-.36,0-.48-.31.06-.23.25-.86.18-.2-.24.56-.12.36-.36-.66-.08-.45.16-.69.24s0-.28-.66-.19c-.1.07-.06.23-.52.3.13.14.42-.16,1-.05-.27.15.37.11.5.18s0,.13,0,.18.42.06.33.18a2.85,2.85,0,0,1-.85.06c.06-.08.3-.1.35-.18a1.77,1.77,0,0,0-.85.11c.06.29.85.24,1.51.19.16.18-.39.11-.68.12.3.15.47.28,0,.42,0,.06.34,0,.34.12.42,0,.57-.22,1,0-.14.26-1.53.14-2.54.16a13.29,13.29,0,0,1-1.52.05,1.64,1.64,0,0,1,.68-.05c-.53-.14-.58,0-1,.05a1.8,1.8,0,0,1-.5-.12c-.29,0-.52.15-.85.17s-.37-.06-.67-.06a6.27,6.27,0,0,1-1.69,0c.15-.3.82-.41,1.71-.28,0-.21-.76-.18-1.34-.19s-.2.09-.19.24c-.33,0-.52,0-.51.11-.3,0-.84-.06-.68.12s.64-.09.84.06a23.59,23.59,0,0,1-2.7.05c-.21,0-.42.1-.68.11l-2.53,0c-1.27,0-2.68,0-3.54,0,0,0,0-.11,0-.12s-.46.11-.67.06c.37-.39-.36.11-1.18,0-.2,0-.15.11-.18.18a5.79,5.79,0,0,1-1.85-.13c-.53,0-.39.18-1,.11-.12-.21.11-.28.69-.23,0-.19-.5-.19-1-.19-.13.18.16.22.15.36-8,.2-16.15,0-23.95,0-1.32,0-2.39,0-3.71,0-.27,0-.3.07-.51.06-.58,0-1.68-.07-2.69-.08-.57,0-1.1.08-1.69,0-.81,0-3.21-.09-4.56,0a9.8,9.8,0,0,1-2.86,0,7.24,7.24,0,0,1-2.19,0c.1.06.38.06.32.18-1.25-.1-2.19,0-3.71,0,.07-.08.31-.09.35-.18-.68-.07-.44.2-.85.24s-.09-.27,0-.31c-.48,0-.72.15-1.19.18a7.63,7.63,0,0,0-1.52,0c-.3,0-.57-.07-.84-.07a12.47,12.47,0,0,1-2,.11,4.09,4.09,0,0,1-.5-.12c-.29,0-.45.2-.84,0-.57,0-1.94.2-2.71.22a4.64,4.64,0,0,1-.67-.06c-.3,0-.36.06-.68,0s-.34-.1-.5-.12-.31.06-.51.06c-.72,0-1.85-.12-2.52-.08-.3,0-.5.1-.85.12a1.8,1.8,0,0,0-.5-.13,5.71,5.71,0,0,1-1.52.05c-.18,0-.38,0-.59,0s-.5.06-.74.07-.41-.07-.8-.07l-4.69.1v-.09c0-.34.06-.42.06-.68,0-1.36-.13-2.55-.1-3.45,0-.45.08-.32.12-.64l-.07-1.56c0-.43,0-.88,0-1.39.06-.11.06-.38.18-.33,0-.2-.11-.14-.18-.17,0-1.1-.26-1.9,0-2.7,0-.6,0-.62-.05-1.35.07-.19.11-.48.3-.33,0-.75-.14-.22-.24-.51-.05-.78.16-.81.13-1.52,0-.31-.2-.11-.24-.34.12-.84,0-2,0-3.21,0-.35.11-.77.12-1.17,0-1-.21-2.92.09-3.54a1,1,0,0,0-.18-.35c.16-1.11-.15-1.78,0-3-.26-.28-.12-.66-.17-1.36-.07-.06-.18.27-.19.33s.11.31.12.51-.08.32-.06.5.11.46.11.68,0,.62-.06,1a16.06,16.06,0,0,1,0,1.69,3.57,3.57,0,0,1-.13.5c0,.18.07.74,0,1.18s0,.65,0,1.35,0,1.43,0,2.36c-.1,0-.1-.16-.18-.18,0,.52,0,1.11-.18,1,0,.19.1.14.17.17s0-.59.07-.84a6.81,6.81,0,0,1,0,2.54c-.08.41.24.53.06.67-.13.35-.12-.08-.18-.34s-.13,0-.12-.35c0-.13.07-.16.07-.33.07,0,0,.31.05.51a13.33,13.33,0,0,0,.07-1.69c-.32-.26,0,1.32-.36,1a8,8,0,0,1,.22,2.37c.26.23.08-.8.31-.66a6.66,6.66,0,0,1-.14,1.85c-.08-.29-.08-1.25-.29-.69,0,.33.23.15.17.68-.34-.16-.22,1.11-.06,1.35a2.21,2.21,0,0,0,.12-1c.24.17.05.86.05,1.36-.23-.4-.24.3-.36.65.23.2.22-.58.36-.15,0,.46-.25.41-.25,1s.09-.27.13-.33c.06.85.08,1.78.08,3v4.42c0,.25-.17,1.36.05,1.52l0,.61c1.21.06,3.22.06,4.1,0a9.81,9.81,0,0,1-2.57.1H12.55a19.09,19.09,0,0,0-.05-1.94c-.21.21-.15.75-.36.47a15.19,15.19,0,0,0,0,1.7l.12-1.3c.19.2.13.7.06,1.3a4.6,4.6,0,0,0,.95.07c.23-.14-1.11,0-.53-.18l15.34.09c.28,0,.57.06.84.06s.67-.07,1-.05c.57,0,1.24.29,1.68.07.06.14.67.08.83.18s.18-.11,0-.12c3-.29,6.24.12,8.61-.12.24,0,0,0,0,.12a14.93,14.93,0,0,1,2-.11c0,.16-.66.08-.68.24.53,0,1.28-.22,1.69-.05,0,.26-.71-.07-.86.17-.53,0-.59-.11-1.17-.06a2.75,2.75,0,0,1-.34.05c-.06.14,0,.23.32.25-.54.06-.65.32-.7.41.27.23,1,0,1.35.13.08.19-.54,0-.68,0s-.1.12-.17.12c-.5,0-1.13,0-1.86,0-.28-.11-.24-.44.19-.48.13-.13-.61-.25-.67-.12-.52-.1.36-.19.35-.3q-.54,0-.51.18c-.53,0-.37-.19-1-.13.3-.24,1.09.08,1.36-.17a5.74,5.74,0,0,0,1.85.07c.24-.25-1.34,0-.66-.24-.7.14-1.17,0-1.69.17-.32,0-.73,0-.67-.19a15.81,15.81,0,0,1-3.37,0,6.24,6.24,0,0,1-2,.11,8.67,8.67,0,0,1-1.53.17c0-.11.22-.13.18-.24-.42,0-.41.13-.68.17a10.84,10.84,0,0,0-1.69.05,1.42,1.42,0,0,0,.67.13c-.33.1-1.08.05-1.36.17-.76,0-1-.22-1.67-.25-.25,0,.06.08,0,.18-.72,0-.9-.16-1.68-.13-.17,0-.18.13-.51.11-.07.11.12.12.33.13a2.93,2.93,0,0,1-1.35-.07c-.38,0,.2.09-.18.18-.55,0-.21-.4-1.16-.31.11.06.38.06.33.18-.57-.11-.63.14-1,0,.05,0,.19-.15,0-.18s-.46.14-.17.12c.06.17-.92-.05-.85.12s1.56-.07,1.33.25c.23,0,.15-.15.19-.24ZM40.83,63c0-.19-.1-.36-.65-.37l0,.36Zm-.13-.78h-.5c.16.18.15.42,1,.37C41.49,62.25,40.4,62.45,40.7,62.17ZM27.9,62c.49,0,.12.35,1,.25.2-.19-.26-.15-.33-.24C28.7,61.87,27.78,61.87,27.9,62Zm80.24-2.48c.38-.08,1.09,0,1-.29-.53-.06-.35.15-.68.17,0-.15,0-.29-.32-.3Zm-7.92-.17h-.51c.12.19-.18.22-.18.36C100.15,59.69,100.05,59.45,100.22,59.31Zm.31.54c-.37.18-.19.28-.87.41C100.26,60.26,101.3,60,100.53,59.85Zm3-.28c0,.18-.73.34.15.36-.17-.22.36-.19.52-.3C103.93,59.65,103.88,59.56,103.58,59.57Zm-.15-.36c0-.09.28-.1.35-.18a2.5,2.5,0,0,0-.68-.06C103.05,59.1,103.13,59.19,103.43,59.21Zm-.88.65c0,.08-.24.12-.18.24a2.23,2.23,0,0,1,.67.07C103.08,60,103.08,59.84,102.55,59.86Zm-3.16-.8a11.15,11.15,0,0,0,1.85,0c0,.09.28.11.33.19s-.3.05-.34.11c.41.06.36.27,1,.25a2.49,2.49,0,0,0,.68-.17c0-.3-.36-.51-1.15-.55-.12.12.22.08.33.12s.5.26.15.3-.72-.14-.65-.36A14.32,14.32,0,0,0,99.39,59.06Zm-.28-1.14a2.2,2.2,0,0,0,1-.11c-.62.1-.5,0-1-.07Zm-3.51-.74c.14,0,1.31.17,1.19,0S95.55,57,95.6,57.18Zm-1.71.65a11.63,11.63,0,0,0,2.18.07c.2-.32-.74-.26-1-.13C94.4,57.8,94.2,57.64,93.89,57.83Zm-2.37,0c.56.2,1.31-.18,1.86,0C93.1,57.5,92.05,57.72,91.52,57.81Zm-.64-.66c.77,0,1.63.29,2.2,0A20.31,20.31,0,0,0,90.88,57.15Zm6.28,2.68s0,.07-.17.06c-.06.15.22.2.66.18C97.71,59.91,97.6,59.81,97.16,59.83ZM97,58.75c-.11.23.93.07,1.35.13-.29.19,0,.23.66.24C99.22,58.73,97.57,58.71,97,58.75Zm0,.42c.55-.05.52.09.67.18a1.42,1.42,0,0,0,.68-.11c-.66,0-.73-.11-.33-.25C97.61,59,96.79,59.14,97,59.17Zm-.21.9c-.48-.08-.29-.38-1.17-.31-.18.13.31.12.33.24s-.4.07-.35.18.06.15.67.12C96.13,60,96.56,60.18,96.81,60.07ZM93,59.68c-.16-.36,1.39.11.86-.29a2.53,2.53,0,0,0,1-.12,13.14,13.14,0,0,0,1.84.32l0-.24c-.76,0-1.19,0-.84-.25-.89,0-1.52.13-2.36.16C93.66,59.53,91.88,59.46,93,59.68Zm-1.9.83a14.32,14.32,0,0,0,1.7-.23,14.37,14.37,0,0,0,2.35.14c.06-.14,0-.24-.15-.31-.3.08-1,0-1.19.12.43.1.6-.07.84.06a2.11,2.11,0,0,1-1.34-.13c.89-.09.27-.23.86-.35.32,0,.37.07.67.06,0-.17-.5-.14-.49-.3s.83-.08.35-.12-.55.33-1.37.29c.44.27-.26.29-.52.3.32,0-.11.23-.35.24.08-.3-1.17-.15-1.33-.37v.3c.44,0,1,0,1,.13C91.61,60.35,90.83,60.24,91.05,60.51Zm-.79-1.09c-.48,0-.43-.08-.84-.06C89.11,59.63,90.3,59.58,90.26,59.42Zm-1,.6c.72,0,.22-.16.52-.18s1,0,1-.11c-.64-.06-1.08.09-1.35,0C89.53,59.89,89.16,59.87,89.22,60Zm-1,.29c.3,0,.84.18,1,0-.13,0-.19,0-.16-.12C88.62,60.18,88.23,60.18,88.19,60.31ZM87,60.18c-.55.07-.12-.19-.67-.12-.27,0-.15.19-.68.11-.22.2.54,0,.33.25-.51,0-.82-.25-1,0,.5,0,.51.14,1,.13a9.82,9.82,0,0,1,1.87-.29c0-.07,0-.17.18-.18.83-.07-.46-.06-.51.06-.23,0-.5-.25-.67-.07C87,60.08,87.26,60.16,87,60.18Zm-2-.43a3.89,3.89,0,0,0,1,.07c.21-.2-.55,0-.33-.25a7,7,0,0,1,1,.07c.29-.12,0-.07,0-.24-.5.06-1.35,0-1.53.17C86,59.58,85.07,59.68,85,59.75Zm-.7.36c-.14-.13-.31-.56-.82-.37.3,0,.38.11.33.24-.3,0-.85-.06-.69.12a8.65,8.65,0,0,1,1.35.07c.22,0,1.22,0,.68-.06Zm.55-.78c-.22,0-1.62-.17-1.18-.07A1.76,1.76,0,0,0,84.87,59.33Zm-1.34-.25c.54.08.14-.19.68-.11.27,0,.13.15.5.12l0-.24c-.64,0-.81-.08-1.35-.07C83.29,59,84,58.94,83.53,59.08Zm-1.38.59c-.2.2,1.45.23,1,.13C82.49,59.87,82.83,59.6,82.15,59.67Zm-.64-.54a7,7,0,0,0,1.34.19C82.94,59.1,81.87,59,81.51,59.13Zm-1.87.17c.42,0,1.33.24,1.52,0C80.75,59.27,79.7,59.11,79.64,59.3Zm-.7.59c.42,0,.77.28,1,.13C79.73,59.92,79.14,59.65,78.94,59.89Zm0,.54a12.36,12.36,0,0,0,2,.07c.18-.23-.94,0-.83-.24.23,0,.19-.15-.16-.12-.1.08.18.31-.19.3A.89.89,0,0,0,78.91,60.43Zm-6.23-.1a7.16,7.16,0,0,0-1-.07C71.42,60.45,72.67,60.42,72.68,60.33Zm5.79-1.16c-.13,0-.33,0-.34.06.66.06.53-.17.69-.3h-.68C78,59.09,78.47,59.05,78.47,59.17Zm-.56,1.13c0,.15.25.19.49.25.06-.08.24-.11.18-.24ZM75.6,59.15A8.06,8.06,0,0,0,77.29,59c0,.16-.47.15-.68.24A1.58,1.58,0,0,0,77.8,59a7.46,7.46,0,0,1-2-.19C75.92,59,75.54,59,75.6,59.15Zm.46.9c-1.7.05.67.18.68,0C76.43,60,76.36,60,76.06,60.05ZM73.87,60v.3c0,.08-1.22,0-.68.11a11.72,11.72,0,0,1,1.68.08c.28-.3-.87-.1-.66-.37.32,0,.38-.06.68-.05-.11.31,1.57.54,1.85.19-.68,0-1.3-.05-1.52-.07-.3-.3.57-.16.53-.36A18.77,18.77,0,0,1,73.87,60Zm-2.48-.86c.46,0,.33.12.66.13s-.2-.15.18-.18c.07.1.22,0,.51,0,.09.19-.33.18,0,.3s.63,0,.68,0-.19,0,0-.06c.87-.08.72.18,1.17.24,0-.24.32-.33.2-.6a5.85,5.85,0,0,1-1.51-.07c0,.08-.06.15-.35.12-.52,0-.47-.19-1.17-.12C71.66,58.94,71.25,58.93,71.39,59.12Zm.15.36c.63.16.3.22.84.07-.19.22.41.17.32.36.34.06.65-.19.34-.18,0,.06-.3.08-.33,0v-.12c.35,0,1.11.08,1.19,0a3.11,3.11,0,0,0-1.18,0A5.15,5.15,0,0,0,71,59.36C70.91,59.52,71.33,59.43,71.54,59.48ZM69.66,60a3.22,3.22,0,0,1,.84.13H69.32c-.15.07-.24.16-.19.3,1,.08,1.05-.18,1.87-.17.11-.12-.3-.12-.33-.18s.34-.08.34-.12-.32,0-.33-.06.35-.14-.17-.12C70.84,60,69.74,59.8,69.66,60Zm-1.49-.49a9.25,9.25,0,0,0,1.68.07C69.74,59.18,68.65,59.33,68.17,59.46Zm-.57.27-.29,0c-.2,0-.12-.12-.5-.13-.12,0-.64,0-.68.12.29,0,1-.07,1,.07-.8-.06-.48.14-.69.17a3.85,3.85,0,0,0-1-.07c.09.27,1.32.14,1.84.26,0,.06-.14.07-.18.12a3,3,0,0,0,.85,0c.26-.23-.76,0-.5-.24h.85c.18-.25-.76,0-.84-.18s0-.08.13-.09S67.7,59.73,67.6,59.73ZM65,59.5c.9.07.41-.1.68-.11.7,0,1.46.14,2,.07-.25,0-.15-.15-.16-.24a12.73,12.73,0,0,1-2.53,0Zm-4.55-.15c0,.08.08.13.16.18a1,1,0,0,0,.69-.17A1.63,1.63,0,0,0,60.41,59.35Zm-1.88.53c.3,0,1,.08,1-.05C59.33,59.74,58.54,59.72,58.53,59.88Zm-3.73.4c.33.1.21,0,.67,0C55.62,60.05,54.68,60,54.8,60.28Zm-.14-.6a4.47,4.47,0,0,0,1.68.07A6.53,6.53,0,0,0,54.66,59.68Zm-3.16-.81c.26,0,.13.19.67.13v-.18C51.92,58.83,51.55,58.79,51.5,58.87Zm-1.36.24c.56.1,1.27.06,1.19-.24-.1,0-.64-.15-.68,0s.2,0,.17.06C50.28,58.87,50.29,59,50.14,59.11Zm-2.35-.26c-.08.28.68,0,1,0s1.16.17,1.35,0A17.69,17.69,0,0,0,47.79,58.85Zm-1.38.65c.21.09,1,.11,1,0C47.12,59.48,46.43,59.37,46.41,59.5Zm9.34-1.32a8.1,8.1,0,0,0,1.34.13C57.12,58,56.26,58.08,55.75,58.18Zm-1.85-.07c.57-.07.88.24,1.17.07-.67-.07-.39-.14,0-.24A2.78,2.78,0,0,0,53.9,58.11Zm-2-.55c.16.14,0,.38.66.36C52.64,57.7,52.22,57.65,51.9,57.56Zm-.52.29c.91.09-.64.36.49.37C52.13,58,51.8,57.74,51.38,57.85Zm-4.56.21c-.2,0-.18-.09-.16-.18a2.42,2.42,0,0,0-.68.06C45.85,58.09,46.69,58.2,46.82,58.06Zm-1.31-.78c0,.09-.08.22.15.24,0-.13.49,0,.51.06s-.44,0-.35.18c.75,0,1.77-.11,2.53,0,.42,0,.59.23,1,.25-.54,0-1.49.18-1.19.29.35-.19,1.49-.17,1.7-.35,0,0-.54,0-.33-.12s.71-.17.84,0c-.2,0-.48,0-.51.05a4.8,4.8,0,0,1,.84.19c-.2.09-.19.15.16.18-.12-.18.58-.07.35-.3-.42,0-.53.11-.67-.06l.53-.54H50.4c-.23.15.65.19.15.24-.16,0-.74,0-.67-.07s.47,0,.34,0a8.53,8.53,0,0,0-1.52,0c-.34,0-.94-.17-1,0a13.51,13.51,0,0,1,1.67.25c-.49.19-1-.13-1.34-.19a4.48,4.48,0,0,1-1.51,0c0-.17,1.1.08.85-.17A9.61,9.61,0,0,1,45.51,57.28Zm-3.28,1.36a1,1,0,0,0,1.17.3.52.52,0,0,1-.33-.12,5.1,5.1,0,0,1,1.18,0c-.2.19.26.15.33.24.58.05.65-.08,1.18,0-.11-.19-.11-.12,0-.3Zm-4.73.21A9.89,9.89,0,0,0,39,58.79c0,.14-.49.07-.51.18.13,0,.33,0,.33.06h.34c0-.09,0-.23.18-.24.22.26.87,0,1.35,0V59c.7-.19,1.76.22,1.86-.05-.72,0-1.24-.15-.83-.31a4.54,4.54,0,0,0-1.53.17C39.32,58.85,37.82,58.44,37.5,58.85Zm-3.45-1.77c.5-.08.62.07.85-.11-.4-.08-.32,0-.84-.07ZM33,58.22a3.57,3.57,0,0,0,1,.06C34.23,58.09,33,58.12,33,58.22Zm-.2.53c1.12,0-.16.21.32.31.76,0,1.27,0,1.86-.05.42-.08-.29-.18.18-.24a5.31,5.31,0,0,0,1.34.31c.29-.08.46-.2.52-.36-.61,0-1.35,0-.68.12-.58,0-.89-.17-1.51-.19C34.41,58.92,33.3,58.58,32.78,58.75Zm-.18.3c-.2,0-.1-.06,0-.12-.45,0-.35-.19-.83-.18S32.22,59.23,32.6,59.05ZM31.38,22.67c.2,0,.48,0,.51-.06-.61,0,.47-.3-.33-.24C31.37,22.43,31.5,22.48,31.38,22.67ZM23,21.12a5.39,5.39,0,0,0,1.69-.05A7.62,7.62,0,0,0,23,21.12ZM17.7,22.63c.17,0,.29.06.45.06C18.05,22.52,17.55,22.44,17.7,22.63Zm-.22.78c-.14-.29.11-.29-.05-.58C17.38,22.84,17.25,23.31,17.48,23.41Zm-.1,14.22c-.08-.18-.22-.18-.3-.36V38C17.22,38,17.37,38,17.38,37.63Zm-1.31,7.69c0-.65.28-.33.18-1.17-.18-.1-.16.57-.3.15A2.17,2.17,0,0,0,16.07,45.32Zm1.48,2.77c-.07-.53.1-.4.12-.67-.17-.05-.2.31-.3.49-.12,0-.07-.46-.24-.34C17.1,48.57,17.28,48,17.55,48.09Zm-.24,7.75c0-.21,0-.35-.12-.38C17.23,55.71,17,56,17.31,55.84Zm.39,2h-.56C16.85,58.11,17.69,58.11,17.7,57.87ZM18.85,57c-.22,0-.46,0-.55.11C18.49,57.06,18.87,57.2,18.85,57Zm2,.2c-.58,0-1.41.12-1,.23C19.93,57.34,21.16,57.54,20.89,57.18Zm3.83.92c-.11-.17-.51-.25-1.17-.24C23.25,58.18,24.12,58.09,24.72,58.1ZM28,56.92c-.51-.17-1.1,0-1.67-.19-.12.16.27.08.5.13C27.19,56.94,27.8,57.16,28,56.92Zm2.61,1.76a3.7,3.7,0,0,0-1.53.35c.46,0,1.17.18,1.51,0C30.2,59,30.46,58.72,30.59,58.68Zm-4.22.21c-.12.24.92.08,1.34.13a3.14,3.14,0,0,1,.68-.05c-.11.15.05.21.49.18.14-.18-.45-.12-.32-.3a1.81,1.81,0,0,0,1-.18A22.9,22.9,0,0,1,26.37,58.89Zm-8.61-.11c.1,0,.14,0,.09.12a2.23,2.23,0,0,1,.73,0C18.75,58.72,17.69,58.74,17.76,58.78Zm-2.68,0v.13a.88.88,0,0,0,.57-.12,1.72,1.72,0,0,0-.38-.07v-.11Zm.06-1.07a1.76,1.76,0,0,0-.36,1.19c.22,0,.12-.29.24-.51,0,0,.09.14.12-.1Zm-.28-10.74A2.18,2.18,0,0,0,15,48c0-.49.14-.51.13-1ZM50.69,21.12c.05.11-.38.16-.86.23.34,0,.21.16.67.12C50.6,21.4,51.38,21.1,50.69,21.12ZM54.4,21c-.13,0-.19-.05-.16-.12-.57,0-.56.12-.85.17C53.69,21,54.37,21.15,54.4,21Zm83.53-.72c-.43,0-.68-.27-1-.07C137.1,20.27,137.68,20.47,137.93,20.3Zm2.5.43c-.3,0-.39-.06-.32-.18-.53,0-.6.1-1.19.05,0,.11.81.27,1,.25s0-.15.18-.12C140.09,20.82,140.55,20.93,140.43,20.73Zm2.89-.34c.08-.15-.87-.24-1-.13A8.92,8.92,0,0,0,143.32,20.39ZM163,49c0,.65.28.67.24,0Zm-.09-4.56c-.18,0-.18.5-.19,1C163,45.58,162.92,45,162.92,44.46Zm4.57-1.79c-.1.22-.38-.08-.36.49.07.14.16.23.3.18C167.42,43,167.5,43,167.49,42.67Zm.15-4.38c-.12,0-.12.23-.18.33-.15-.11-.31-.35-.3.32.08,0,.13-.07.18-.15,0,.36,0,.53.18.51A2.5,2.5,0,0,1,167.64,38.29Zm-5.57-.78c.05.46-.14,1.57.11,1.52s-.14-.26-.06-.68c.07,0,.14,0,.12-.33C162,38.27,162.21,37.45,162.07,37.51Zm5.1-.76c0,.42.12,1.07.3.86,0-.64-.37-1-.17-1.69C167.13,35.75,167.16,36.45,167.17,36.75Zm-.29-2c.13.26.14.85.36.87C167.31,34.8,167,34,166.88,34.71Zm-4.73-10.26c0-.29.21-.25.19-.64C162.18,23.78,162,24.35,162.15,24.45Zm-6.3-5.12,0-.24h-.51C155.3,19.24,155.41,19.35,155.85,19.33Zm-21.26.16c.5,0,1.63,0,1.36-.11S134.27,19.41,134.59,19.49Zm-2.17-.43c.41,0,.35.23,1,.19C133.42,19.11,132.7,18.91,132.42,19.06Zm-1.56.83c.07-.25-1-.05-1.18,0A3.13,3.13,0,0,0,130.86,19.89Zm-6.21-.64c.46,0,.32.13.5.18a4.3,4.3,0,0,0,1.53-.11c0,.09.36.07.49.13a13.23,13.23,0,0,1,3.21,0c-.15-.12,1,0,.34-.12-.31,0-.37.06-.67.05-.06-.14-.65-.21-1-.24s-.43.06-.85,0-.95-.12-1.34-.13c-.22,0-.23.08-.51.06C125.9,19.05,124.67,19,124.65,19.25Zm-20.41.11c.4,0,.78.17,1.17.19a4.21,4.21,0,0,0,.85-.12c.17,0,.13.06.17.06s.16-.06.17-.06c.86,0,1.33-.05,1.53-.23-.62-.06-1.6.09-2.54.11C105.11,19.32,104.43,19.1,104.24,19.36ZM80.68,21.67a2.45,2.45,0,0,0,1,0C81.86,21.46,80.59,21.53,80.68,21.67Zm3.06-.4c-.64-.13-.69.27-.36.3C83.27,21.38,84,21.5,83.74,21.27ZM82.91,21c.4,0,.3.21.83.19C84.63,21,83.23,20.67,82.91,21Zm21-1.36c0-.18-.37-.19-.32-.37.13,0,.34,0,.34-.05C103,19.19,102.85,19.58,103.89,19.6Zm-9.47-2.88a3.27,3.27,0,0,0,1.36-.06C95.11,16.68,94.75,16.52,94.42,16.72Zm-4.55.09c.63-.13.61.08,1.17.12,0-.15.33-.18,0-.3C90.77,16.73,89.83,16.59,89.87,16.81Zm-9.62.11c.21.09.82.1.84-.05C80.88,16.79,80.27,16.77,80.25,16.92Zm.68,3.19a4.1,4.1,0,0,0,1.35-.05c-.17.24.63.06.67.06.36,0,.43.18.83.19-.11-.27.93-.11,1-.3.3,0,.85-.05.67.13-.53,0-.68-.15-.85.05a2.92,2.92,0,0,0,.84.07c.31,0,1.43-.42,1.53-.11-.1,0-.2.05,0,.06.22-.17,1,.27,1.19-.05-.1-.09-.65,0-.67-.13.81,0,1.4.17,1.86-.05.13,0,.26.18.33.19s1.08,0,1.18,0,0,.12,0,.12a8.65,8.65,0,0,1,1-.05c0,.07,0,.17.16.18.38-.12,0-.19-.15-.3.7-.06.2-.24,1-.29.33,0,.2.16.67.12a1.63,1.63,0,0,1,.68-.12,25.45,25.45,0,0,1,3.37,0,1,1,0,0,1,.68-.18c1.81-.05,2.66-.08,4.56-.09.15-.43-1.25-.13-1.85-.13-1,0-2-.11-2.86-.14,0,.1-.14.15-.34.18a23,23,0,0,0-3.55.09c-.1-.13.49-.18-.16-.18-.2.11-.65.13-.86.24a25.66,25.66,0,0,1-3-.08,5.17,5.17,0,0,1-1.85,0c.19.29-.87.13-1.2.23.06-.12.47-.12.52-.24a7,7,0,0,1-1.52,0c-.28.24.73,0,.67.19s-.81,0-1.52.05c0,.07-.06.14-.34.12.33-.2-.06,0-.51-.07a3.39,3.39,0,0,0-1.52.11q0-.15.18-.24c-.62-.06-.55.13-.85.18a10.2,10.2,0,0,1-2.35-.2c0-.07.3-.13,0-.18s-.28.23-.52.3c-.46,0-.78-.26-1,0,.73.09,1.3,0,1.52.13-.29.06-.78.08-1.19.12-.72.06-.25,0-.84-.07C77.05,20.36,81,20.27,80.93,20.11ZM73,20.36c.13-.21-.58-.22-.84-.13S72.73,20.45,73,20.36Zm-5.12,1.23a6.52,6.52,0,0,1,1.34.06c-.11-.1-.6-.37-.83-.24.1,0,.2,0,.17.06A1.46,1.46,0,0,0,67.87,21.59ZM66.72,21a1.54,1.54,0,0,0,1-.06A1.53,1.53,0,0,0,66.72,21Zm-.49-.31c0,.25.42.17.83.13C67.25,20.6,66.54,20.7,66.23,20.67Zm-.34-3.42c.48.16.82-.1,1.19-.17A2.12,2.12,0,0,0,65.89,17.25Zm-.32-.36c.09-.19-.35-.19-.83-.19C64.65,16.89,65.09,16.9,65.57,16.89Zm-2.38.34c.42,0,.82,0,.85-.11C63.8,17,63.09,17,63.19,17.23Zm-2,2.93c.63.09.33-.16.85-.11.33.05,1.68.28,1.86,0-.61,0-1.29.09-1.52-.07,0,0,.54,0,.17-.06C62.26,20.07,61,19.86,61.19,20.16ZM61,17.22c.48,0,.44.09.84.07a.21.21,0,0,0-.15-.24A1,1,0,0,0,61,17.22Zm-5,3.09c.86-.14,1.36.16,1.69,0-.51-.06-.51-.3-1.16-.31-.2.09-.2.15,0,.24A.79.79,0,0,0,56,20.31Zm-1.66-.43c.44,0,.56-.08.52-.24C54.35,19.64,54,19.77,54.29,19.88ZM45,19.76c.13,0,.19,0,.16.12.48.07,1.16-.09,1.18,0s-.74,0-.68.17c.6.12.62,0,1.18,0-.24-.18.07-.23-.15-.36A16.51,16.51,0,0,1,45,19.76Zm-10.14.41c.32,0,.37.07.67.07-.13-.17.25-.16.18-.3A1.52,1.52,0,0,0,34.88,20.17Zm-2.36,0a2.7,2.7,0,0,0,1,.13c0-.09-.07-.14-.15-.19.58-.18,1,.15,1.34,0-.16-.18-1.07-.1-1.5-.19,0,.09,0,.22-.19.24,0-.11-.56,0-.66-.12C31.26,20.2,32,20.09,32.52,20.16ZM11.05,22.7A10.62,10.62,0,0,0,11,20.44c0,.33-.07.14-.12-.07C11,21.37,10.67,22.19,11.05,22.7Zm.11.58c.07,0,.08-.45,0-.55-.06.55-.24.51-.25,1.34C11.11,24.34,11.05,23.37,11.16,23.28ZM11,26.17c.08-.22.06-1-.11-1C11,25.62,10.82,25.94,11,26.17Zm2.08,3.31a4.44,4.44,0,0,0-.17-1.19A1.53,1.53,0,0,0,13.11,29.48Zm-2,.74c0-.63.08-.76-.11-1A1.21,1.21,0,0,0,11.06,30.22Zm1.67,11.56a4.22,4.22,0,0,0-.05-1c-.12,0-.21.1-.25.33C12.69,40.88,12.62,41.57,12.73,41.78Zm-.13,1c0-.1.25-.5.07-.67-.28.42,0-.43-.12-.68C12.19,41.47,12.47,42.59,12.6,42.78Zm-1,7c.08-.22.12-1.17,0-1.18C11.68,49.09,11.45,49.48,11.6,49.81Zm0,7.36c-.08-.09-.12-.31-.12-.76-.19-.1-.25.37-.3.87.1-.06.14.23.11.78C11.5,58.12,11.56,57.64,11.62,57.17Zm-.31,2.51a4.6,4.6,0,0,0,.36-1C11.51,58.86,11.23,58.53,11.31,59.68Zm1.2-.68c-.09-.84,0-2.53-.23-2.72-.09.42,0,.27.06.69C12.37,57.67,12.25,59.23,12.51,59Zm5.21,3c.49-.06,1.16-.08,1.27-.23-.68,0-.6-.09-1.17-.07Zm-1.4.36a7.31,7.31,0,0,0-1.33,0c-.3.14,0,.4.38.24C14.8,62.54,16,62.38,16.32,62.32Zm3.79.19a2.53,2.53,0,0,1-.4,0l-.61,0c-.47,0-.83,0-.78.13s.4,0,.65,0l.66,0C19.92,62.65,20.16,62.63,20.11,62.51Zm0-.06c0-.06-.11-.1-.25-.12a5.59,5.59,0,0,0-.64,0c-.65,0-1.41,0-1.87,0-.07.11-.87,0-.85.18.9,0,1.44,0,2-.07l.86,0ZM90.88,20.11c.11-.16.47-.23,1-.23a.74.74,0,0,1-.51.12c0,.05.06.05.17.06C91.5,20.14,91.13,20.1,90.88,20.11ZM102,58.48c-.11.2-.64.08-1,.05C101.11,58.37,101.62,58.46,102,58.48ZM29.64,20.38a7.4,7.4,0,0,1-2.36,0c0-.25.26,0,.5,0A7.7,7.7,0,0,1,29.64,20.38ZM15,28.06c.06.52,0,1.2,0,2.2A10.85,10.85,0,0,1,15,28.06Zm71.9,33.68c-.26.33-1.52.14-2.2.11-.46,0-1.25.1-1.34-.13A24.75,24.75,0,0,0,86.94,61.74Zm20.17-1.85c-.31,0-.36.07-.68.06a.93.93,0,0,1-.32-.48C106.63,59.54,107.05,59.65,107.11,59.89Zm-16.81,2a13.64,13.64,0,0,1-2.19.05A11.2,11.2,0,0,1,90.3,61.94Zm-15-.33,2.87,0c-1.6.26-3-.06-5.24,0A14.24,14.24,0,0,1,75.31,61.61ZM108.1,60.2h-1.68C106.74,60.15,108,59.93,108.1,60.2Zm4.73-.15a1.64,1.64,0,0,1-1,.05A1.72,1.72,0,0,1,112.83,60.05Zm-2.7.1a4.79,4.79,0,0,1-1.69-.07A4.51,4.51,0,0,1,109.8,60C109.79,60.07,109.92,60.13,110.13,60.15ZM94.18,58.73c-.7-.07-.67.12-1.19.11-.39-.36-1.09,0-1.51-.07.09-.05.18-.09.17-.18.35,0,1.12-.06,1.18.07C93.21,58.61,94.22,58.41,94.18,58.73Zm25.8-37a35.11,35.11,0,0,1-3.54,0,31.53,31.53,0,0,1,3.21-.1C119.93,21.54,120,21.61,120,21.68ZM49.6,16h1.18C50.74,16.05,49.52,16.19,49.6,16Zm100.87-.14a2.54,2.54,0,0,1,1-.17c.25,0,.93,0,.83.19A18.33,18.33,0,0,0,150.47,15.81Zm-92.61.13a10.12,10.12,0,0,0,1.86.07c.68,0,1.6-.09,1.68.13C60.29,16.05,58.15,16.32,57.86,15.94Zm42.15.33c-.56-.21,1.27-.06,1.53-.17,0,.07.3,0,.5.06C101.79,16.42,100.26,16.17,100,16.27Zm-31.72.34c.43,0,.86,0,.83.18C68.64,16.8,68.2,16.79,68.29,16.61Zm-11.63-.14c-.07-.16.91.06.84-.11.14.15,1.33-.06,1.18.19C58,16.54,57.5,16.44,56.66,16.47Zm-5.4,0a8.24,8.24,0,0,1,1.51.19S51.05,16.71,51.26,16.44Zm5.89.28c.56,0,1.19,0,1.17.18C58,16.8,57.09,16.93,57.15,16.72Zm2.18.19c.14-.2-.68-.08-.49-.3.56,0,.57.2,1.17.18C60,16.9,59.72,16.93,59.33,16.91Zm68.92,4.64a5.15,5.15,0,0,1-1.86.11l-4.22,0c-.69,0-1.62.22-1.85-.07,1.34.14,2.79,0,4.22,0C125.63,21.54,126.88,21.59,128.25,21.55Zm-14.68.09a10.65,10.65,0,0,1-1.69,0A3.86,3.86,0,0,1,113.57,21.64Zm-9.78-.12a6,6,0,0,1-1.18.11C102.48,21.4,103.41,21.56,103.79,21.52Zm7.76.05c0,.23-1.84.1-2.19,0A15.1,15.1,0,0,1,111.55,21.57Zm29.35-.12a5.1,5.1,0,0,1-1.69.05A9.61,9.61,0,0,1,140.9,21.45Zm13.51-.21c-.19.2-.61,0-1,.05-1.45,0-3.48.09-4.89.09.25-.33,1.09-.1,1.52-.11C151.24,21.26,152.48,21.23,154.41,21.24Zm-24,.33c-.22.2-2,.14-1.85,0C129.08,21.63,129.6,21.52,130.44,21.57Zm8.44-.13c0,.17-.8.14-1,.06C137.89,21.36,138.58,21.47,138.88,21.44ZM34.25,16a12.66,12.66,0,0,1,2-.05A12.66,12.66,0,0,1,34.25,16ZM46.43,62.44c-.24.1-.76.09-1,.18a.66.66,0,0,0,.34.12c-.28.22-.25-.14-.68-.07A3.19,3.19,0,0,1,46.43,62.44Zm4,.15c-.16.3-.82.1-1.36,0C49.25,62.51,50.06,62.62,50.47,62.59Zm-5.6.68c-.51,0-1,0-1-.18C44,63.22,45,63,44.87,63.27Zm3.88-.15a2,2,0,0,1-1.18-.07c-.41,0-.52.11-.84,0A6.13,6.13,0,0,1,48.75,63.12Zm-3.69-.33c-.15.14-.55,0-.85.06-.1,0-.14.11-.17.12-.27,0-.3-.08-.51-.07a2.26,2.26,0,0,1-1,.18c-.16-.18.39-.11.68-.12-.07-.19.41-.24-.15-.3.22-.21.35.06.5.06s.06-.09.18-.11a10.8,10.8,0,0,0,1.18.06C44.87,62.74,44.93,62.78,45.06,62.79Zm-9.45,0a17.24,17.24,0,0,1-2,.11c.09-.13-.23-.11-.5-.12a3,3,0,0,1,2-.05c0-.15-.31-.19,0-.3-.74,0-2.68,0-2.86-.32.71,0,1,.17,1.68.19.2,0,.59-.17.18-.18,1.08-.18,2.95.09,3.88,0-.3.22-1.18.17-1.53.23-.13.13.61.25.67.12.62.16-.65.13-1,.12s.08-.18.19-.3c-.68,0-1-.07-1.52-.07-.15.23.54.14.67.18s-.26.1-.18.12.63,0,.5.19C35.62,62.68,35.65,62.75,35.61,62.79Zm9.4.9c-.68,0-1.26.22-1.87.29-.44.06-.22-.1-.67,0a27.54,27.54,0,0,1-4.23.27c-.16-.08-.57-.08-.67-.18,0-.28,1-.16.53-.42.6-.09.75,0,1.35,0,0-.26-1-.17-1.68-.19,0-.11.22-.13.19-.24a16.2,16.2,0,0,0,3.2.08c.07.13-.25.11-.52.12a1.24,1.24,0,0,0-.69.29c.61.18.54,0,.85-.11a20.12,20.12,0,0,0,3.55,0A1.36,1.36,0,0,0,45,63.69Zm-3.21.1c0-.08-.36-.07-.5-.12-.12.24.64.18,1.17.19C43.62,63.85,42.29,63.76,41.8,63.79Zm-4.68-.87c.05-.06.34,0,.35-.11s-.72,0-1-.07c0,.06.2,0,.33.06.08.19-.47.27.33.24-.38.16-.5.1-1,.06-.13,0,.37-.08.34-.06a10.57,10.57,0,0,0-1.18,0c-.07-.13.25-.11.52-.12a5.43,5.43,0,0,1,2.37-.34c-.09,0-.18.1-.17.18.34-.08.32-.29,1-.23-.06.15,0,.25.49.24-.18.35-1.05.21-1.7.29,0-.17.29-.12,0-.24S37.65,63,37.12,62.92ZM51,62.17c0,.09-.5,0-.51.12H49.13c-.59,0-1.3,0-1.34-.19.41,0,.36.11.84.07V62c-.47-.21-1,0-1.85-.07-.18-.23.53-.1.85-.12s.59-.1.85-.11c.85,0,1.76,0,2.36,0,.41.15-.26.11-.18.3-.14-.25-1.42-.21-2-.13.13.17.46.27,1,.3.11-.15-.06-.21-.5-.18C49.8,61.76,50.34,62.14,51,62.17Zm-17.91.73c-.68.26-.85-.13-1.85-.07.73.08.32.21-.35.23.11-.28-.65-.09-1-.3.12,0,.72-.19,0-.18.17-.24.85,0,1.35,0-.12.13-.88,0-.69.29.17,0,.14-.07.18-.12h1.18c.27,0-.26-.29.51-.24C32.75,62.66,31.74,62.91,33.08,62.9ZM56,62.74c.6,0,.41.17,1,.07C57.12,63,55.92,62.89,56,62.74Zm101-3.19a15.1,15.1,0,0,1,2.19,0A15.1,15.1,0,0,1,157.05,59.55ZM56.2,62.63c-.34.08-.79.11-.86.29-.58,0-1.3,0-1.34-.19a4.83,4.83,0,0,0,1.52,0c0-.06-.21-.05-.34-.06A1.57,1.57,0,0,1,56.2,62.63Zm103.39-.06c0,.11-.29.13-.68.12,0,.16.28.12,0,.24a18.64,18.64,0,0,1-2,.1c-1.09.06-2.21.15-3.38.16a2.89,2.89,0,0,1-.5-.06c-1.7,0-3.39.17-5.07.2-.3,0-.7-.07-1-.06s-.48.11-.68.11-.58-.06-.84-.06c-1.17,0-2.63.09-3.88,0,.14-.16-.23-.15-.16-.3-.68.08,0,.13,0,.3a9.39,9.39,0,0,0-2.37.17c-.39.14-.47-.06-.67-.07-.37,0-.72.19-1.18,0,.18.38-.5.1-.86.23a1.85,1.85,0,0,1,.66.3c.28-.09-.06-.22.36-.35s.58.11,1.17.06v.24c.56,0,.11-.31.86-.35,0,.11-.21.12-.18.24.66,0,.89-.22,1.35,0a5.15,5.15,0,0,1,1.87-.23,3.52,3.52,0,0,1-1,.17,4.38,4.38,0,0,0,.66.19c.37,0-.15-.13-.16-.12s.3,0,.51-.06.28-.31.85-.12c.16.17-.37.07-.51.12s0,.22-.35.24a4.93,4.93,0,0,0,1.68.13c0-.28-.68,0-.84-.19s.57-.15.69-.29c.57.06.08.11.16.3a2,2,0,0,0,1.17.25c0,.21-.64.38-.86.17-.46,0,.45.12.16.3a3.12,3.12,0,0,1-1.18,0c-.16,0-.38.06-.68.05-.78,0-1.67-.13-2.52-.14-.35,0-.46.06-.68.06-1.21,0-2.7-.11-3.88-.08-.5,0-.87,0-1.34-.07-2.84-.12-5.82-.16-8.59-.36-.27,0-.43-.1-.66-.12a16.3,16.3,0,0,0-1.86,0,5.52,5.52,0,0,0-1.35,0c-.53,0-.44-.17-.83-.19-.84.11-1.78-.09-2.7,0-.31,0,0-.23.34-.17-.6-.22-1.51.07-1.36.17-.61-.07-1.4-.07-1.5-.31-.8.27-2.16-.21-2.87.1-.32,0-.4-.12-.5-.12a4.13,4.13,0,0,1-.51.05c-.73-.05-2-.19-3-.2-.25,0-.84,0-.85.12-.2,0-.14-.11-.16-.18a15.15,15.15,0,0,1-2.36,0c-.17,0-.14.07-.18.12-.62-.11-1,0-1.34-.13s-.25.11-.51.12a13.46,13.46,0,0,0-1.85-.13c-.44,0-1.26,0-1.52.05s-.7.1-1,.11c-1.23,0-2.49,0-3.54,0a11.39,11.39,0,0,1-2.7,0c-.28,0-.38.11-.68.12s-.29-.07-.5-.07c-.39,0-.94.11-1.36.11-1,0-1.85-.11-2.86-.07-.26,0-.3,0-.51,0s-.56-.06-.84-.06-.48.1-.68.11-.31-.06-.5-.06-.36.06-.68.06c-1.31,0-2.72-.09-3.88,0-.27,0-.28-.07-.5-.06a8.54,8.54,0,0,1-2.36,0,18.25,18.25,0,0,1-2.87,0c0-.11.56,0,.51-.17a1,1,0,0,0-.68.17,9.32,9.32,0,0,0-1.69-.07c-.38,0-.19.17-.51.18-1.71,0-3.26-.09-4.72,0-.39,0-.66.1-1,.11-1.06,0-2.14-.07-3.2-.08-.32,0-.7.07-1,0s-.5-.1-.84-.12-.52.06-.85,0c-1.24,0-2.7-.08-4-.14-.09-.18.66,0,1.19,0,.32,0,1.1-.28,1.18,0,.59,0,.42-.21,1-.17,0,.1.11.16.33.18-.08-.13.59-.26,1,0,.19-.22-.63-.1-.49-.3l2.53,0c.16-.23-.73-.1-.49-.36,1.18.14,2-.22,2.87.08.35,0,.36-.09.17-.18.39-.08.63.16.68,0,.4,0-.2.16-.18.24a14.83,14.83,0,0,1,3.21-.1c0-.06-.21-.05-.34-.06a20.72,20.72,0,0,1,3,0c.59,0,.42-.21,1-.17a3.44,3.44,0,0,0,1,.12c.28,0,.32,0,.34-.12.37,0,.91.15,1,0-.11-.14-.94,0-1.34-.07,0-.15-.05-.26-.5-.24a2.35,2.35,0,0,1-.34.06c.11.06.39.06.33.18-4.17-.16-6,0-9.94-.13-.2-.08-.06-.09,0-.18-1.08,0-2,0-2.87,0-.18,0-.12.11-.34.11-.47,0-1-.07-.83-.3-.45.07-.53.05-.35.24-.17,0-.17-.14-.5-.13.08-.21.72-.22,1-.35a5.63,5.63,0,0,0,1.51.07c.26.21-.57,0-.51.18.33.14,1.33,0,.85-.18.66.07,1-.12,1.35,0,.07.13-.25.11-.51.12.23.16,1.08,0,1-.12a20.74,20.74,0,0,0,2.86,0c.48,0,.71.15,1.17.19.19,0,.12-.12.35-.12,1.57.05,3.6,0,4.88.09.17.21-.53.09-.85.12a2.34,2.34,0,0,0,1.53-.17c2.12.15,3.68.13,5.73.09.12.12.5,0,.16.19.53.07.41-.1.68-.12,1.33.09,2.84.12,4,.09.63,0,1.43-.05,2-.05s.88.07,1.35.07c.26,0,.58-.06.84-.06s.39.12.67.13,1.61-.06,2-.11c.18,0,.13-.11.34-.12a4.13,4.13,0,0,0,1.18.07c.56,0,.71.14,1-.05.53,0,.55.16,1.17.12,0-.07-.31-.05-.5-.06.19-.24.63-.05,1-.05,2.11,0,4-.06,6.58,0,.79,0,2.24,0,3.37,0,.3,0,.35.07.67.07.68,0,1.52-.17,1.85.07a5.79,5.79,0,0,1,2-.11c.08,0-.39.09-.51.06s.94.11.68-.06a3.55,3.55,0,0,0,1.34.13c0-.06-.2-.05-.33-.06a27,27,0,0,1,3,0,8.13,8.13,0,0,0,2.51.25c-.1-.12-.85,0-.66-.24,1,.06,1.13-.16,2.2-.11.63,0,1.29.14,2,.14,0,.07-.31,0-.51,0,.36.17,1.12,0,.68-.17.39,0,.63,0,.67.12,1-.17,2.63,0,3.88-.09-.58.18.72.24,1,.12-.1-.22-.86.16-.67-.12,1.62,0,3.59.05,4.72,0-.05.1.16.1.16.18l.52-.18c.72,0,1.48,0,2.19,0,1.22,0,2.54.07,3.87.08.32,0,.7,0,1,0,1.41,0,3.93.08,5.73,0,.55,0,1-.1,1.52-.11,1.1,0,2.14,0,3.21,0L152,62c.3,0,.35.07.67.07s.47-.06.68-.06a2.93,2.93,0,0,0,1.35-.05l4.39,0c0,.1-.22.12-.18.24h-1.35c-.37,0-.09.21-.19.3.37,0,.25-.11.51-.12.43,0,.15.1.34.12a1.23,1.23,0,0,0,.51-.06C159.17,62.45,159.24,62.68,159.59,62.57Zm-87.85-.5c-.33,0-.66-.28-1-.07C71.07,62,71.4,62.27,71.74,62.07Zm-7.12.85c-.32-.07-.8-.08-1.18-.13-.11.22.88.36,1,.31C64,63.06,64.7,63,64.62,62.92Zm1.65.67c0-.16-1.12-.24-1.34-.13A4.61,4.61,0,0,0,66.27,63.59ZM72,63.45c-.38,0-1.4-.17-1.52,0C71.08,63.4,71.5,63.6,72,63.45Zm4.28-1.3c-.22-.13-1.51.06-1.18.12C75.26,62.14,76.18,62.3,76.29,62.15Zm11.42,1.1a2.45,2.45,0,0,0-1.19,0C86.89,63.33,87.61,63.45,87.71,63.25Zm5.06-.09c0-.14-.46.06-.51.12h1.52C94,63.07,93.12,63.2,92.77,63.16Zm20.43-.41a1.13,1.13,0,0,0-.85.18C112.78,62.92,113.22,62.92,113.2,62.75Zm.87-.53c-.62.06-2-.26-2.19,0,.64.08.25,0,.5,0C112.93,62,114,62.61,114.07,62.22Zm3.72-.1c-.32-.11-1,0-1,.17A1.76,1.76,0,0,0,117.79,62.12Zm.33.12c.49,0,.51.14,1,.13C119.35,62.17,118.28,62.12,118.12,62.24Zm7.18,1.43h-.68C124.34,63.94,125.48,63.88,125.3,63.67Zm2.53,0c-.9.07-.51-.3-1.34-.25,0,.19.57.19.83.3s-.55,0-.35.24A1.15,1.15,0,0,0,127.83,63.63Zm5.36.63h.68C134,64,133.07,64,133.19,64.26Zm1.05-.59a2.18,2.18,0,0,0-1,.11.52.52,0,0,1,.33.12C134,63.9,134.21,63.82,134.24,63.67Zm8.74.53a2.89,2.89,0,0,0,1,.37c.28-.21-.47-.19-.66-.24s.05-.1,0-.12l-.34-.07c-.21,0-.44,0-.67-.06C142.13,64.26,142.68,64.19,143,64.2Zm-1.19.18H141C140.68,64.55,142,64.56,141.79,64.38Zm-1.5-.43c.13.3.88,0,1.17.24,0-.14.49-.06.52-.17C141.34,63.93,141,64,140.29,64Zm-1.37.53c.42.08.48-.09.85-.12.17,0,.89.21.84,0C140.3,64.22,138.89,64.24,138.92,64.48Zm-2.69-.14c.41,0,.87,0,.85-.23C136.67,64.14,136.21,64.15,136.23,64.34Zm17.29-1.75c-.07-.11-.05-.26-.49-.24s-.39.17-.19.36C153.3,62.75,153.18,62.59,153.52,62.59Zm2.38-.34a.51.51,0,0,1-.33-.13c.18,0,.43,0,.17-.06-.37.14-.57-.05-1.18,0-.07.25.6.16,1,.12C155.51,62.28,155.78,62.35,155.9,62.25ZM53.69,62.13a9.84,9.84,0,0,0-1.69.23A7,7,0,0,1,50.83,62a6.55,6.55,0,0,1,1.88-.35,2.68,2.68,0,0,1-1.2.24c0,.15.23.19.67.18.13-.3,2.13-.64,2.37-.17-.42,0-.52-.11-.84,0,.69.28,2-.11,2.52.14v-.24c-.63,0-.81.06-1.35.05-.33-.35,1.6-.3,1.69-.11a4.08,4.08,0,0,1,1.35,0c-.16.1-.63.09-.69.23-.31,0-.1-.2-.49-.18s-.07.18-.35.18c.05.08.42.05.67.06-.2.26-.94.28-1.53.29S54.32,62.13,53.69,62.13Zm.13.78h-.5c.42-.14-.25-.12-.16-.3C53.69,62.6,53.73,62.76,53.82,62.91Zm2.89-.34a7.13,7.13,0,0,1,1,.07C57.71,62.73,56.46,62.76,56.71,62.57Z"/><text class="cls-3" transform="translate(21.46 49.13)">METAL MATCH</text></svg>