<svg id="Layer_1" data-name="Layer 1" xmlns="http://www.w3.org/2000/svg" viewBox="0 0 159.83 51.59"><defs><style>.cls-1{fill:#231f20;}.cls-2{fill:#fff;}</style></defs><title>main-logo.png</title><path class="cls-1" d="M9.19,47.42a5.8,5.8,0,0,1,.6,0l.37,0a.92.92,0,0,0,.55-.09h-1C9.23,47.35,8.9,47.36,9.19,47.42Z"/><path class="cls-1" d="M31.17,49.66c-.32.07-.25.29-.85.11a1.17,1.17,0,0,1,.69-.29c.26,0,.58,0,.51-.12a16.2,16.2,0,0,1-3.2-.08c0,.11-.2.13-.18.24.67,0,1.68-.07,1.67.19-.6.09-.75,0-1.35,0,.45.26-.57.14-.52.42.1.1.5.1.66.18a27.54,27.54,0,0,0,4.23-.27c.45-.1.23.06.68,0,.6-.07,1.18-.26,1.86-.29a1.36,1.36,0,0,1-.66-.12A20,20,0,0,1,31.17,49.66Zm1.67.31c-.54,0-1.3.05-1.17-.19.13,0,.46,0,.49.12C32.65,49.87,34,50,32.84,50Z"/><path class="cls-1" d="M142.68,1.94c.11-.14-.57-.18-.83-.19s-1,.08-1,.18A16,16,0,0,1,142.68,1.94Z"/><path class="cls-1" d="M28.16,49.16c.64-.08,1.51.06,1.7-.29-.45,0-.55-.09-.5-.24-.7-.06-.67.15-1,.23,0-.08.08-.13.18-.18a5.28,5.28,0,0,0-2.38.35c-.27,0-.59,0-.51.11a10.66,10.66,0,0,1,1.18,0s-.47.05-.34.06c.51,0,.63.1,1-.06-.8,0-.25,0-.32-.24-.13,0-.34,0-.34-.06.3,0,1-.07,1,.07s-.3,0-.34.11c.52.08.41-.09.68-.11S28.15,49,28.16,49.16Z"/><path class="cls-1" d="M34.22,49.2c0,.18.5.18,1,.18C35.39,49.15,34.34,49.33,34.22,49.2Z"/><path class="cls-1" d="M35.16,47.46c-.37,0-1.09-.15-1.19.06C34.32,47.48,35.08,47.6,35.16,47.46Z"/><path class="cls-1" d="M37.09,49.16c.32.11.43,0,.85,0a2,2,0,0,0,1.17.07A5.88,5.88,0,0,0,37.09,49.16Z"/><path class="cls-1" d="M39.48,48.75c.53,0,1.19.25,1.35,0C40.42,48.73,39.61,48.62,39.48,48.75Z"/><path class="cls-1" d="M26.15,48.79c.14-.2-.38-.15-.5-.19s.22-.1.18-.12-.82.05-.67-.18c.56,0,.84.11,1.52.07-.1.12-.49.19-.19.3s1.64,0,1-.12c-.06.13-.8,0-.67-.12.35-.06,1.23,0,1.53-.23-.92.12-2.79-.15-3.88,0,.41,0,0,.2-.18.18-.68,0-1-.17-1.67-.19.17.35,2.11.36,2.85.32-.32.11,0,.15,0,.3a3,3,0,0,0-2,0c.26,0,.58,0,.5.12a17.37,17.37,0,0,0,2-.11S26,48.79,26.15,48.79Z"/><path class="cls-1" d="M39.51,48c.44,0,.61,0,.5.18-.54,0-.86-.13-1-.3.6-.08,1.88-.12,2,.13-.07-.19.59-.15.18-.3-.6.07-1.51,0-2.36,0-.26,0-.59.09-.85.11s-1-.11-.85.12c.88,0,1.38-.13,1.85.07v.18c-.48,0-.44-.09-.85-.07,0,.19.75.17,1.34.19h1.35c0-.1.47,0,.52-.12C40.71,48.25,40.16,47.87,39.51,48Z"/><path class="cls-1" d="M35.65,47.77a12.91,12.91,0,0,0-2,0A12.91,12.91,0,0,0,35.65,47.77Z"/><path class="cls-1" d="M35.26,48.78a10.8,10.8,0,0,1-1.18-.06c-.12,0,.06.12-.17.12s-.29-.28-.51-.07c.57.06.08.11.16.3-.3,0-.84-.06-.68.12a2.33,2.33,0,0,0,1-.18c.21,0,.23.1.5.07,0,0,.07-.11.17-.12.3,0,.7.08.85-.06C35.29,48.89,35.23,48.85,35.26,48.78Z"/><path class="cls-1" d="M35.62,48.25a.88.88,0,0,1,.35-.18c.24,0,.53.09.49.24-.2,0-.4,0-.34.12.73,0,1.34,0,1.36-.29-.68,0-1.07.14-1-.19-.94-.1-.94.14-1.53.17,0-.17.68-.14,0-.24-.44.11-.11.15-.52.3A6.61,6.61,0,0,1,35.62,48.25Z"/><path class="cls-1" d="M33.25,48.41c-.42,0-1,0-1,.17A2.41,2.41,0,0,0,33.25,48.41Z"/><path class="cls-1" d="M92.4,2.27c-.19,0-.47,0-.5-.06-.25.11-2.09,0-1.52.17C90.62,2.28,92.15,2.53,92.4,2.27Z"/><path class="cls-1" d="M35.43,48.78c.42-.07.39.29.67.07a.52.52,0,0,1-.33-.12c.26-.09.79-.08,1-.18A3.12,3.12,0,0,0,35.43,48.78Z"/><path class="cls-1" d="M20.08,48.81c-.07,0-.27,0-.34-.07-.4-.14-.61,0-.84,0s-.07-.08-.34-.06-.46.12-.68.11c0,0,0-.11,0-.12-.21-.08-.85.06-1,0s-.52.24-.68,0c.05-.12.75,0,.69-.17a1.68,1.68,0,0,0-1.37.35c-.31-.13-1.43-.42-1.85-.14.41.08,1.05.08.82.37A9.08,9.08,0,0,1,16.36,49c0,.06-.14.07-.18.12.63.07.49-.14,1-.11a17.48,17.48,0,0,0,3.37.08C19.7,49.11,20.28,48.89,20.08,48.81ZM18.55,49c0-.44.59-.07,1.35-.11C19.86,49.11,19.06,49,18.55,49Z"/><path class="cls-1" d="M22.79,48.58c-.78,0-.25.23-.52.24H21.09s0,.12-.18.12c-.19-.25.57-.16.69-.29-.49,0-1.18-.19-1.35,0,.71,0,.11.13,0,.18.35.21,1.11,0,1,.3.68,0,1.08-.15.35-.23,1-.06,1.17.33,1.85.07C22.1,49,23.11,48.77,22.79,48.58Z"/><path class="cls-1" d="M13.32,48.94c-.06.16.23.2.67.19C14.05,49,13.77,48.93,13.32,48.94Z"/><path class="cls-1" d="M39.2,47.49c-.5,0-1-.18-1.18,0C38.37,47.51,39.12,47.62,39.2,47.49Z"/><path class="cls-1" d="M26.63,2.09a12.66,12.66,0,0,0-2,.05A12.66,12.66,0,0,0,26.63,2.09Z"/><path class="cls-1" d="M28.53,48.32c-.05.12-.46.12-.51.24a2.41,2.41,0,0,0,1-.18A2.09,2.09,0,0,1,28.53,48.32Z"/><path class="cls-1" d="M123.76,46.29c0-.09.44,0,.35-.18-.77.08-1.26-.11-1.53.17A3.89,3.89,0,0,1,123.76,46.29Z"/><path class="cls-1" d="M59.48,2.9c0-.17-.4-.17-.83-.18C58.56,2.9,59,2.91,59.48,2.9Z"/><path class="cls-1" d="M41.14,2.07H40C39.88,2.3,41.1,2.16,41.14,2.07Z"/><path class="cls-1" d="M50.37,2.9c-.6,0-.6-.18-1.17-.18-.19.22.63.1.49.3C50.08,3,50.33,3,50.37,2.9Z"/><path class="cls-1" d="M51.76,2.25c-.08-.22-1-.11-1.68-.13a10,10,0,0,1-1.85-.07C48.51,2.43,50.66,2.16,51.76,2.25Z"/><path class="cls-1" d="M49,2.66c.15-.25-1,0-1.17-.19.06.17-.92-.05-.85.11C47.86,2.55,48.32,2.65,49,2.66Z"/><path class="cls-1" d="M43.13,2.74a8.12,8.12,0,0,0-1.51-.19C41.42,2.82,43.1,2.75,43.13,2.74Z"/><path class="cls-1" d="M48.68,3c0-.2-.61-.18-1.17-.18C47.45,3,48.41,2.91,48.68,3Z"/><path class="cls-1" d="M21.12,48.15c-.15.15-.24.32.49.31C21.46,48.35,21.64,48.13,21.12,48.15Z"/><path class="cls-1" d="M96.78,46.3h1.68C98.39,46.05,97.1,46.26,96.78,46.3Z"/><path class="cls-1" d="M100.49,46.26c-.21,0-.34-.08-.33-.18a4.4,4.4,0,0,0-1.35.11A4.72,4.72,0,0,0,100.49,46.26Z"/><path class="cls-1" d="M80.66,48.06a10.51,10.51,0,0,0-2.19,0A15.1,15.1,0,0,0,80.66,48.06Z"/><path class="cls-1" d="M68.54,47.74l-2.87,0a14.1,14.1,0,0,0-2.36,0C65.54,47.68,66.94,48,68.54,47.74Z"/><path class="cls-1" d="M63,47.7a10.7,10.7,0,0,0-2.53,0A14.07,14.07,0,0,0,63,47.7Z"/><path class="cls-1" d="M45.9,48.43c.59,0,1.33,0,1.53-.29-.25,0-.62,0-.67-.06.28,0,.11-.17.35-.18s.18.17.5.18c.06-.14.52-.13.68-.23a4.08,4.08,0,0,0-1.35,0c-.08-.19-2-.24-1.69.11.54,0,.72-.1,1.35-.05v.24c-.5-.25-1.83.14-2.52-.14.32-.11.42,0,.84,0-.24-.48-2.24-.14-2.37.16-.44,0-.72,0-.66-.18a2.66,2.66,0,0,0,1.19-.24,6.4,6.4,0,0,0-1.87.35,6.9,6.9,0,0,0,1.16.37,10,10,0,0,1,1.7-.23C44.68,48.24,45.34,48.44,45.9,48.43Z"/><path class="cls-1" d="M75.1,48c.69,0,1.94.22,2.2-.11a24.75,24.75,0,0,1-3.54,0C73.85,48.06,74.64,47.94,75.1,48Z"/><path class="cls-1" d="M115.18,45.88a8.44,8.44,0,0,0,2,.07c-.38,0-.63,0-.67-.13a8.55,8.55,0,0,1-1.34,0c-.54,0-1.22,0-1.36,0,.14,0-1.09-.31-1-.07a5.47,5.47,0,0,1,1,.13C114.27,46,114.67,45.87,115.18,45.88Z"/><path class="cls-1" d="M128.33,46c-.31,0-.37.06-.67.06-.47,0-2.8-.19-2.53,0,1,0,1.72.08,2.52.14C127.61,46,128.59,46.2,128.33,46Z"/><path class="cls-1" d="M152.46,45.76c.69-.07,1.29.2,1.52,0C153.58,45.72,152.06,45.64,152.46,45.76Z"/><path class="cls-1" d="M121.23,46.4a4.37,4.37,0,0,0-.5-.13.84.84,0,0,1-.34.06c-.39,0-1,0-1.52,0s-1.21-.23-1.35,0c.15.16.75.1,1.17.19s.26.15.67.18a30.46,30.46,0,0,1,3.36.14,12.51,12.51,0,0,1,1.37-.29c.18.26-.72.11-.86.24a1.83,1.83,0,0,1,.5.12,17.16,17.16,0,0,1,3.2,0,2.32,2.32,0,0,1,.51-.06c.72,0,1.35.18,2,.2s1.44,0,2.19,0c.48,0,1,.15,1.34.13s.31-.12.52-.12,0,.15.33.13c.21,0,.16-.1.34-.12,0,.09,0,.12.33.12a19,19,0,0,0,3.56-.22c-.26,0-.63,0-.68-.06a7.44,7.44,0,0,0,1-.17c-.39,0-1.84,0-1.67-.2a6,6,0,0,1-.85.18c0-.06-.14-.07-.17-.12.21-.09.64-.09.86-.18-.41,0-1.22-.08-1.36,0,.19,0,.4.11.17.13-.65.08,0-.27-.67-.19a8.72,8.72,0,0,0-1.18,0,.7.7,0,0,0-.5-.12,1.74,1.74,0,0,1-.69.24s0-.12,0-.12a5.08,5.08,0,0,1-1.86,0c.17-.09.78,0,.85-.17,0,.13,1.11.14,1.18-.05a3.77,3.77,0,0,1-1.34-.13c.05.16-.24.19-.68.17v-.24A8.48,8.48,0,0,1,129,46a2.67,2.67,0,0,1-1.37.36c-1-.16-1.88-.1-3.2-.2-.09.17-.64.16-1,.23-.07.1.24.15,0,.18-.67-.08,0-.12,0-.3a4.36,4.36,0,0,1-1.35.05C121.83,46.33,121.43,46.4,121.23,46.4Zm14.48.45c0,.19-.44.2-.85.23,0-.07,0-.1-.17-.12A2.2,2.2,0,0,1,135.71,46.85Zm-5.54-.52c-1-.1-.9.24-1.86.17C128.45,46.3,130.07,46,130.17,46.33Zm-.53.42c.39.12-1.14,0-1.35,0S129.1,46.81,129.64,46.75Zm-3.18-.44c.37.07.93.07,1,.25-.47-.06-.44.08-.85,0C126.69,46.47,126.31,46.48,126.46,46.31Zm-.53.48c-.58,0-.2-.25-.83-.19,0-.08.34-.06.33,0,.4,0,.33-.2.86-.17C126.36,46.62,125.76,46.56,125.93,46.79Zm-.49-.37c-.14,0-.29-.05-.33-.12-.56.09,0,.22-.35.36-.28-.06-.17-.26-.32-.36C125,46.3,125.45,46.14,125.44,46.42Z"/><path class="cls-1" d="M104.88,46.11a7.07,7.07,0,0,0,1.86,0c.47,0,1.47.09,1.36-.17-.56.16-2-.15-1.7.11C105.68,46.13,105.08,45.87,104.88,46.11Z"/><path class="cls-1" d="M104,46.1c-.54,0-.52-.09-.84-.12,0,.31,1.09.25,1.51.19-.19,0-.18-.1-.16-.18C104.22,46,104.21,46.07,104,46.1Z"/><path class="cls-1" d="M113.15,46c-.36.13-.49-.08-1-.06C111.76,46.27,113.7,46.05,113.15,46Z"/><path class="cls-1" d="M59.1,47.62c-2.3-.08-2.92-.06-5.23-.1-.2,0-.4,0-.34.12l4.55,0C58.49,47.67,59.62,47.71,59.1,47.62Z"/><path class="cls-1" d="M103.19,46.16a1.73,1.73,0,0,0-1,.05A1.64,1.64,0,0,0,103.19,46.16Z"/><path class="cls-1" d="M48.08,48.75a7.13,7.13,0,0,0-1-.07C46.82,48.87,48.07,48.84,48.08,48.75Z"/><path class="cls-1" d="M53.2,47.52c-.67.14-1.5-.15-1.86.11C52,47.59,53.07,47.74,53.2,47.52Z"/><path class="cls-1" d="M48.14,47.61h1.51C49.75,47.4,48.09,47.45,48.14,47.61Z"/><path class="cls-1" d="M48.61,48.27c.39,0,.72.13.85-.06C49.24,48.13,48.63,48.12,48.61,48.27Z"/><path class="cls-1" d="M49.76,48.76c.11.16-.35.11-.51.17.36-.14-.17-.38-.49-.24.5.09-.59.1-.52.24s.49.24.67.06c-.09,0-.19-.05,0-.06.62.13,1.11-.07,1.51.13.23-.15-.07-.19.18-.24s.71,0,.85,0,0,.11,0,.12c.44,0,1,0,1.52.07.25-.23-.76,0-.5-.25C51.55,48.8,51,48.68,49.76,48.76Z"/><path class="cls-1" d="M54.17,48.43c-.62.06-1.33-.13-1.52,0C53.06,48.46,54.11,48.62,54.17,48.43Z"/><path class="cls-1" d="M50.07,49.3c.25,0,.87.07.85-.06C50.66,49.14,50.15,49.07,50.07,49.3Z"/><path class="cls-1" d="M48.46,47.91c.37,0,.91.14,1-.06C49.1,47.83,48.57,47.71,48.46,47.91Z"/><path class="cls-1" d="M158.27,29.14c0-.54-.12-.95-.17-1.53-.07-.9,0-1.95,0-2.53s0-1.52-.05-2.19a4,4,0,0,1-.11-.51c0-.27.07-.69.06-1a10.43,10.43,0,0,1-.05-1.36c-.28,0-.16-1.13-.11-1.86a31.11,31.11,0,0,1,0-3.71c-.06,0-.1,0-.12-.17a16.22,16.22,0,0,1,0-3c.12.38.17-.07.36,0,0-.56,0-1.09.06-1.64s0-1.4,0-2.24c-.19.45-.08-.94-.11-1.17s-.21,0-.18-.52c.09-.73.19.5.18-.69,0-.76-.1.47-.24.14.11-1-.22-1-.05-1.43.1,1.08.15-.5.3.09,0-.41,0-1.44,0-2.14-.55,0-.91,0-.64.06h.57a2.14,2.14,0,0,1-.06.67c0-.24,0-.44,0-.61l-1.24.06c-.1,0-1.38.06-1.52,0s-.13-.13-.49-.12a6,6,0,0,1-1,.11c-.51,0-.82-.09-1.44-.06s-1.72.17-2.68.2h-1.1a7,7,0,0,1-.71-.05c0,.07,0,.17-.18.18-.76-.07-2.4,0-3.71,0-.31,0-.37-.07-.67-.06a6.73,6.73,0,0,1-.68.12,4.37,4.37,0,0,0-.68,0c-1,.11.73,0,.33.18-.58,0-.74-.06-.83-.18-.53,0-.59-.11-1.18-.07-.22,0-.16.11-.34.12s-.13-.15-.5-.12c-.47.22-1.2,0-2,.1-.2-.13-.19-.33-.66-.36,0,.09,0,.21-.34.18.09-.35.07-.39.54-.66-1.3,0-1.7-.06-2.87,0,0,.11-.12.2-.35.24,0-.13-.42-.13-.84-.13-.13.19.46.12.33.31-.3-.06-.58-.12-.5-.31-.53-.05-.24.2-.68.18A36.93,36.93,0,0,0,127,2a.8.8,0,0,0-.32-.19c-2.18.14-4.61.18-7.1.2l-.51.18c-.38-.21-.31,0-.85,0-.24,0-.27-.11-.5-.12.05,0-.48,0-.67,0l-2,.05c-.18.34-1.29,0-1.35,0a.93.93,0,0,1-.18.12,1.74,1.74,0,0,1-.67-.06c-.35-.17-.74,0-1.18,0s-.87,0-1.18,0c-.7,0-1.44,0-1.85,0a.94.94,0,0,1-.34.06c-.14,0-.24-.07-.34-.07a11.65,11.65,0,0,1-1.69.17c0-.09,0-.2-.33-.18-.72,0-.22.16-.52.18s-1-.2-1.17-.07c.26,0,.58,0,.5.12-.64.06-.48-.15-1-.12-.23.31-1.45-.1-1.86.1.09,0,.19,0,0,.06s-.24-.11-.16-.24c-.35,0-1.1-.08-1.18.06,1.18-.06-.48.37-.69.17,0-.1.47,0,.52-.11a13.35,13.35,0,0,1-2.54,0c0,.07,0,.17-.17.18-.24-.18-.67.07-1.18,0,0-.08.22-.08.17-.18-.94.23-.57-.29-1.34-.13-.22.2.54,0,.33.24-.23,0-.16.11-.35.12s-.7.05-.84,0,0-.12,0-.12c-.46,0-1,0-1.69,0,0,0,0,.11-.18.12-.92-.07-1.93,0-3-.08,0,.07,0,.17-.17.17-.61,0-.51.18-1,.18-.1.1.19.35-.18.36s-.63,0-.67-.07c.62-.09.37-.15.52-.35a5.52,5.52,0,0,1-1.69,0c.15-.11.54-.18.18-.3a7.16,7.16,0,0,1-1.85,0c-.3.16.16.29-.52.36,0-.15-.4-.12-.5-.18s.36-.14-.16-.12-.12.2-.52.17c-.79,0-1.22-.18-1.84-.19a14.75,14.75,0,0,1-1.53.11c-.24.14.43.23,0,.24-.64-.06-.11-.24-.15-.42-.31,0-.36,0-.17.12-.29,0-.29.18-.52.24S78.37,3,78.2,3a16.66,16.66,0,0,0-1.85-.19c-.32,0-.14.23-.68.18s-.32-.17-.84-.13c-1.13.21-1.92-.3-2.86-.14.19.1.65.2.32.31a3.87,3.87,0,0,0-2-.14c0-.11.19-.13.18-.24-.31-.11-1.65-.16-1.35,0a3.14,3.14,0,0,1,.68-.05c-.05.11.18.13.15.24a2.63,2.63,0,0,0-.34.06c-.45,0-.35-.19-.83-.19-.46.23.93.25,1.33.37-.68,0-.93-.11-1.68-.07.22-.22-.83-.3-1-.19h.51c-.42.11.27.26-.35.3,0-.09-.41-.1-.67-.13-.81-.08-.48,0-1,.05,0-.11-.1-.2-.32-.24a1.13,1.13,0,0,1-.85.18c0-.18-.29-.26-.66-.31.1.24.57.36.81.55a2.63,2.63,0,0,0-.34.06c-.43-.13-.4-.42-1.5-.31,0-.09.28-.1.35-.18-.88,0-1.74-.21-2,.11.5,0,1-.17,1.17.06-.32,0-1-.09-.84.12,0,.1.46,0,.5.12s-.23.12-.52.12c-.63,0,0-.21-.32-.3A9.12,9.12,0,0,1,59.65,3c-.17.12.49.21,0,.24-.27-.2-.44,0-1,0-.17-.16.81-.23,0-.24s-.25.27-.53.35a3.22,3.22,0,0,1,.84.13,2.76,2.76,0,0,1-1.18,0c.59-.23-.42-.29-.48-.48.23,0,.64,0,.34-.06-.53,0-.39.18-1,.11.11-.29-1-.18-1.5-.25a4.51,4.51,0,0,1-2.21.17c-.07-.19.78,0,.86-.17a8,8,0,0,0-1.36,0c.15.1.05.3.32.36,0-.08.48-.07.51,0-.35.37-.76-.08-1.17-.12s-.38.12-.85,0c0-.08.27-.12-.16-.12-.13.18.16.22.15.36a2.09,2.09,0,0,0-.51.06c-.29,0-.27-.19-.5-.25a2.72,2.72,0,0,1-1,.24c-.38-.12-.19,0-.51.05a7.1,7.1,0,0,0-2-.07c.08,0,.2.06,0,.06a3.61,3.61,0,0,0-1.52-.07c0-.08.22-.08.18-.18-.53,0-.6.11-1.18.05,0-.11-.19-.13-.16-.24-.53,0-.39.19-1,.12-.47,0-.19-.29-.83-.25-.22.15.08.19-.18.24s-1,.16-1.18,0,.87-.41.54-.59a4.22,4.22,0,0,1-1.84-.32,9,9,0,0,1-1.35-.06s0,.11-.17.11a8.73,8.73,0,0,0-1.69,0c-.4,0-.8-.08-1.18-.06s-.67.1-1,.11c-.54,0-1.08-.08-1.68-.07-1.11,0-2.28.12-3.21.1a3.11,3.11,0,0,0-.5-.06c-.54,0-.91.18-1.35,0a10.46,10.46,0,0,1-2.53,0l-3,0c-.76,0-1.63.11-2.53.1-1.19,0-2.48-.2-2.87.05a19.66,19.66,0,0,0-4,0,7.16,7.16,0,0,0-1.66-.12H9.52c-.57,0-1.16,0-1.78,0a15.64,15.64,0,0,1-4.18,0c-.46,0-.66.1-1.3.11,0,0-.49-.05-.83-.06v.06c0,.68.09,2.12-.12,1.56a11.61,11.61,0,0,1,0-1.76,7.75,7.75,0,0,0,1.62,0c-.58-.05-1.15-.08-1.74-.09-.06,1.77,0,3.8-.06,6.31,0,.46.15.28.12.9a1.81,1.81,0,0,0-.12.89l0,.88c0,1.86-.14,4.19,0,5.4,0,.28,0,.68,0,.84s.26.49.17,1c0,.24.23,0,.24.35.08.57,0,.89.05,1.18,0-.2,0-.4.13-.33a8.61,8.61,0,0,1-.19,1.34,4.74,4.74,0,0,1,0,2c.08,0,.15.06.12.35s-.15.12-.12.5c.25-.09.05.59.05.67s.12.45.12.52c0,.31-.1.54,0,.67s.2-.49.24,0A2.49,2.49,0,0,0,2,26c-.14.39-.26-.52-.36.15,0-.38,0-.63-.11-.68.05.32-.07.88,0,1.18,0,.14.11-.06.12.18a3.55,3.55,0,0,1-.07.67c0,.3.07.58.06.85a17,17,0,0,0-.08,2.27.94.94,0,0,1,.07-.42,7.56,7.56,0,0,1-.07,1.51c0,.18.05.21.06.34s-.09.24-.07.51.18.49.18.68a2.64,2.64,0,0,0-.13.5c0,.27,0,.57,0,.84v.85c0,.23-.29.32-.06.5,0-.09.05-.19.06,0-.15.46.11,1.09-.07,1.52,0-.27,0-.59-.12-.51.07.43,0,1.17.18,1.35a3.86,3.86,0,0,0,.1,2c-.06,0-.11,0-.14.1a.35.35,0,0,0,0,.16c0,.07,0,.23,0,.37.12,1.42,0,3.92,0,5.8-.11,0-.15.37-.13.92.23.8.25-1.39.37-.81a11,11,0,0,1-.31,1.88V49A20.51,20.51,0,0,1,5,49.08c0-.22,1.06-.14,1.52-.23a14.69,14.69,0,0,0,3,.07c-.12,0-.33-.06,0-.06a4.85,4.85,0,0,1,.86.15,1.51,1.51,0,0,0,.79,0c-.18,0-.4-.1-.16-.12,1,.22,2.44.24,2.54-.29h-.84c0,.09.05.22-.18.24.23-.32-1.14-.08-1.34-.25s.92,0,.85-.12c-.29,0,0-.13.17-.11s0,.19,0,.17c.39.09.45-.16,1,0,.06-.12-.22-.12-.33-.18,1-.09.61.26,1.17.31.37-.09-.21-.15.17-.18a2.81,2.81,0,0,0,1.35.07c-.21,0-.4,0-.33-.13.33,0,.34-.07.51-.11.78,0,1,.14,1.68.13.07-.1-.24-.16,0-.18.7,0,.91.24,1.67.25.28-.12,1-.07,1.36-.17a1.3,1.3,0,0,1-.67-.13,10.84,10.84,0,0,1,1.69,0c.27,0,.26-.18.69-.17,0,.11-.2.13-.18.24A8.55,8.55,0,0,0,23.49,48a6.23,6.23,0,0,0,2-.11,15.81,15.81,0,0,0,3.37,0c-.06.16.35.16.67.19.52-.17,1,0,1.69-.17-.67.23.9,0,.67.24a5.8,5.8,0,0,1-1.86-.07c-.27.25-1-.07-1.35.17.63-.06.47.15,1,.13,0-.13.15-.19.52-.18,0,.11-.88.2-.36.3.06-.13.8,0,.67.12-.43,0-.47.37-.19.48.74,0,1.37,0,1.86,0,.08,0,0-.11.17-.11s.76.13.68-.06c-.35-.13-1.08.1-1.34-.13,0-.08.15-.35.69-.41-.29,0-.38-.11-.32-.25a2.75,2.75,0,0,0,.34-.05c.59,0,.64.09,1.18.06.14-.24.83.09.85-.17-.41-.17-1.16.06-1.69.05,0-.16.66-.08.68-.24a14.68,14.68,0,0,0-2,.11c0-.07.25-.09,0-.12-2.36.24-5.63-.17-8.61.12.17,0,.21.11,0,.12s-.78,0-.84-.18c-.44.22-1.11,0-1.68-.07-.35,0-.63.05-1,.05s-.56-.07-.84-.06L3.11,47.63c-.58.21.75,0,.52.18a4.6,4.6,0,0,1-.95-.07c.07-.6.13-1.1-.06-1.3-.07.73-.09,1-.12,1.3a16,16,0,0,1,0-1.7c.21.28.14-.26.36-.47,0,.53,0,1.2,0,1.94H4.59a10.18,10.18,0,0,0,2.57-.11c-.87,0-2.88,0-4.09,0l0-.61c-.21-.16-.05-1.27-.05-1.52V40.81c0-1.2,0-2.13-.08-3,0,.06-.1.82-.12.33s.2-.54.24-1c-.14-.43-.13.35-.36.15.13-.35.13-1.05.37-.65,0-.5.18-1.18-.06-1.36a2.21,2.21,0,0,1-.12,1C2.76,36.07,2.64,34.8,3,35c0-.53-.16-.35-.18-.68.22-.56.21.4.3.69a7.12,7.12,0,0,0,.13-1.85c-.23-.14-.05.89-.31.66a8,8,0,0,0-.22-2.37c.35.32,0-1.26.37-1C3,31,3.17,31.56,3,32.1c0-.2,0-.48-.06-.51,0,.17-.06.2-.06.33,0,.39.07.17.11.35s.06.69.18.34c.18-.13-.14-.26-.05-.67a6.58,6.58,0,0,0,0-2.54c0,.25.07.88-.06.84s-.17,0-.18-.17c.21.1.18-.49.18-1,.08,0,.09.22.18.18,0-.93,0-1.77,0-2.36s0-.79,0-1.35-.06-1-.06-1.18a2.54,2.54,0,0,0,.13-.5,16.06,16.06,0,0,0,0-1.69c0-.39.07-.64.07-1,0-.22-.1-.43-.12-.68s.07-.24.06-.5-.13-.33-.11-.51.11-.39.18-.33c.06.7-.09,1.08.17,1.36-.16,1.25.14,1.92,0,3a1,1,0,0,1,.18.35c-.3.62-.06,2.5-.08,3.54,0,.4-.11.82-.13,1.17-.06,1.19.09,2.37,0,3.21,0,.23.23,0,.23.34,0,.71-.18.74-.12,1.52.1.29.23-.24.23.51-.19-.15-.23.14-.3.33.05.73,0,.75.05,1.35-.28.8,0,1.6,0,2.7.07,0,.17,0,.18.17-.11-.05-.12.22-.18.33,0,.51,0,1,0,1.39s0,1,.06,1.56c0,.32-.1.19-.12.64,0,.9.08,2.09.1,3.46,0,.25-.07.34-.06.67v.09l4.69-.1c.39,0,.44.07.81.07s.49,0,.73-.07.41,0,.59,0a5.71,5.71,0,0,0,1.52-.05,1.8,1.8,0,0,1,.5.13c.36,0,.55-.1.85-.12.67,0,1.8.06,2.53.08.19,0,.42-.07.51-.06s.15.12.5.12.37-.06.67,0a4.64,4.64,0,0,0,.67.06c.78,0,2.14-.18,2.71-.22.4.21.55,0,.85,0a3.64,3.64,0,0,0,.5.12,12.56,12.56,0,0,0,2-.11c.27,0,.53.07.84.07a7.54,7.54,0,0,1,1.51,0c.47,0,.72-.15,1.19-.17-.1,0-.41.28,0,.3s.17-.31.85-.24c0,.09-.28.1-.34.18,1.51,0,2.45-.07,3.71,0,.05-.12-.23-.12-.33-.18a7.25,7.25,0,0,0,2.19,0,9.87,9.87,0,0,0,2.87,0c1.34-.06,3.75,0,4.55,0,.6,0,1.12,0,1.69,0,1,0,2.12.06,2.69.08.22,0,.24-.06.51-.06,1.32,0,2.39,0,3.71,0,7.8.05,15.9.23,23.95,0,0-.14-.28-.18-.15-.36.5,0,1,0,1,.19-.58-.05-.81,0-.69.23.63.07.49-.14,1-.11a5.79,5.79,0,0,0,1.85.13c0-.07,0-.17.18-.18.82.12,1.55-.38,1.18,0,.21,0,.51-.12.68-.06,0,0,0,.12,0,.12.86.07,2.27,0,3.54,0l2.53,0c.26,0,.47-.1.68-.11a23.54,23.54,0,0,0,2.7-.05c-.2-.15-.82.05-.83-.06-.17-.18.38-.11.68-.12,0-.11.17-.14.51-.11,0-.15-.31-.19.18-.24s1.3,0,1.34.19c-.89-.13-1.56,0-1.7.29a6.22,6.22,0,0,0,1.68,0c.3,0,.4.08.67.06s.56-.16.86-.17a1.33,1.33,0,0,0,.5.12c.43,0,.48-.19,1-.05a1.64,1.64,0,0,0-.68.05,13.22,13.22,0,0,0,1.52-.05c1,0,2.4.1,2.54-.16-.44-.17-.59,0-1,0,0-.08-.3-.06-.33-.12.49-.14.32-.27,0-.42.26,0,.69,0,.7-.06h.54a.93.93,0,0,0,.26.37c.32,0,.37-.07.68-.06,0-.14-.21-.24-.45-.31H98.3c0,.06,0,.13-.15.2a2.14,2.14,0,0,0,1-.18c0,.13.59,0,.84.07,0,0,0-.07,0-.09h1.11c-.13.09-.14.2.07.28-.49,0-.58,0-.34.11.08.18.26-.09.51,0,0,.13.12.19.49.18A.24.24,0,0,1,102,46c-.25,0-.62,0-.67-.06a3.72,3.72,0,0,1,.94-.22h.26a1.88,1.88,0,0,1,.33.05s0,0,0-.05h2s0,0,0,.06-.33,0-.34.06c.7-.15.67.11,1.51.07.05-.11-.06-.16-.22-.19h.23c.49.07,1.08,0,1.52.13.17-.18-.37-.11-.67-.13,0,0,0,0,0,0h2c.05.19-.15.29-.37.38a18.7,18.7,0,0,0,2.54,0c-.17,0-.21-.11,0-.12.65-.08,0,.27.67.18.17-.18.1-.28.63-.4h5.08c-.1,0-.18.06-.13.14h.34s.13.07.16,0c-.16,0-.19-.08-.14-.14h.6c-.08.06-.19.1-.12.21.51,0,.45-.1.51-.21h1.8a1.2,1.2,0,0,0-.11.1.83.83,0,0,0,.54-.1h.4a2.06,2.06,0,0,0,1,0h.4c-.14,0-.24,0,0,.05.19-.14.76.13,1-.05H154V38.25c.15-.2.29-.41.52-.36v1.35a27.34,27.34,0,0,0-.5,3c.07,0,.17,0,.18.18,0,.53.1.6.05,1.18a1.22,1.22,0,0,1,.3.69c0,.14-.08.22-.07.33s.21,0,.3.19,0,.29,0,.33c.07.22.2.13.24.35,0-.2,0-.4.12-.33.11.44.15.11.3.52,0-.25,0-.62.06-.67,0,.22.08.24.06.51.24-.05.37-1.11.66-.47.07-.49.09-.84.3-.49.13-.83.52-.9.62-1.83.17-.06.19-.58.42-.48a20.7,20.7,0,0,0,.08-2.86c0-.35-.15-.52-.18-.86a18.88,18.88,0,0,0-.22-3.21,4.86,4.86,0,0,0-.05-1.52c0-.69,0-1.5,0-1.86a4.55,4.55,0,0,1-.12-.51c.13-.71.47-.56.66-.13.09-.48-.16-.87,0-1,0,.48.28.23.23.86.14,0,.18-.28.36-.15A16.57,16.57,0,0,1,158.27,29.14ZM1.24,6.48c.05.21.1.4.12.07a10.62,10.62,0,0,1,0,2.26C1,8.3,1.33,7.48,1.24,6.48Zm0,4.78c.18,0,.2.8.11,1C1.18,12.05,1.38,11.73,1.28,11.26Zm.15,5.07a1.15,1.15,0,0,1-.12-1C1.51,15.57,1.46,15.7,1.43,16.33Zm.1-6.94c-.12.09-.05,1.06-.25.79,0-.83.19-.79.25-1.34C1.6,8.94,1.59,9.4,1.53,9.39ZM2,35.92c-.15-.33.08-.72-.05-1.18C2.08,34.75,2,35.7,2,35.92Zm-.4,7.47c.06-.5.11-1,.3-.87,0,.45,0,.67.12.76-.06.47-.12.95-.3.89C1.7,43.62,1.67,43.33,1.56,43.39Zm.11,2.4c-.08-1.15.2-.82.36-1A4.6,4.6,0,0,1,1.67,45.79Zm28.85,3.26,0-.36c.56,0,.64.18.66.37Zm1-.41c-.83,0-.83-.19-1-.37h.51C30.77,48.56,31.85,48.36,31.55,48.64Zm-12.62-.56c.07.09.53.05.33.24-.87.1-.51-.22-1-.25C18.14,48,19.06,48,18.93,48.08ZM10,48.75l-.66,0c-.25,0-.47,0-.65,0s.32-.14.78-.13l.61,0a2.49,2.49,0,0,0,.4,0C10.52,48.74,10.29,48.76,10,48.75Zm-1.81-1c.57,0,.49.11,1.18.07-.12.15-.79.17-1.27.23Zm-.46.66c.45,0,1.22,0,1.86,0a5.52,5.52,0,0,1,.64,0c.15,0,.24.06.26.12l-.78,0-.85,0c-.54,0-1.09.06-2,.07C6.84,48.47,7.65,48.54,7.72,48.43Zm-2.37,0a7.31,7.31,0,0,1,1.33,0c-.29.06-1.52.22-.95.29C5.39,48.88,5.05,48.62,5.35,48.48ZM2.87,45.11c-.26.23-.14-1.33-.17-2,0-.42-.15-.27-.06-.69C2.9,42.58,2.78,44.27,2.87,45.11ZM3,26.87a3.76,3.76,0,0,1,0,1c-.11-.2,0-.9-.29-.69C2.84,27,2.93,26.89,3,26.87Zm-.07,2c-.14-.18-.41-1.31-.06-1.35.09.25-.15,1.1.12.68C3.21,28.4,3,28.79,3,28.89ZM3.3,14.4a4.44,4.44,0,0,1,.17,1.19A1.53,1.53,0,0,1,3.3,14.4Zm42.54,32c-.46,0-.35.1-.68,0C45,46.15,46,46.16,45.84,46.39Zm-.82-.6a6.6,6.6,0,0,1,1.69.07A4.51,4.51,0,0,1,45,45.79Zm3.87.2c0-.16.81-.14,1-.05C49.88,46.07,49.19,46,48.89,46ZM51.37,3.33a.93.93,0,0,1,.68-.17.21.21,0,0,1,.16.24C51.8,3.42,51.84,3.28,51.37,3.33ZM53,45.78c0-.05,0-.07,0-.09h.35C53.3,45.79,53,45.9,53,45.78ZM57.44,3.19c-.37.07-.7.33-1.18.17A2.08,2.08,0,0,1,57.44,3.19Zm-3.88.16c-.11-.21.6-.22.85-.12C54.37,3.36,54,3.36,53.56,3.35Zm1.54-.53c.48,0,.92,0,.84.18C55.45,3,55,3,55.1,2.82Zm3.57,43.29h-.84c-.26.22.75,0,.49.24a3,3,0,0,1-.84,0c0-.05.17-.06.17-.12-.52-.12-1.75,0-1.84-.26a3.93,3.93,0,0,1,1,.07c.21,0-.12-.23.68-.17,0-.14-.71,0-1-.07,0-.07.14-.09.27-.11h.53c.23,0,.21.09.38.12l.29,0c.1,0,.18,0,0,0s-.16,0-.12.08S58.86,45.86,58.67,46.11Zm2.69.2c-.81,0-.86.25-1.87.17,0-.14,0-.23.19-.3h1.18a3.22,3.22,0,0,0-.84-.13c.08-.15,1.18.07.86-.23.51,0,.09.06.16.12s.33.09.33.06-.34.13-.34.12S61.47,46.19,61.36,46.31Zm1.26-.62c-.26.08-.23.07-.39,0Zm-.59.68a8.88,8.88,0,0,1,1,.07C63,46.53,61.78,46.57,62,46.37Zm.69-.68h1.5a6.78,6.78,0,0,1-1.15,0v.12c0,.08.33.06.34,0,.3,0,0,.24-.35.18C63.14,45.84,62.62,45.87,62.72,45.69Zm2.52.47c-.3,0-.36.07-.67.05-.21.27.93.07.65.37a11.72,11.72,0,0,0-1.68-.08c-.53-.08.66,0,.68-.11l0-.3c.92,0,1.07-.17,1.86-.17,0,.2-.83.06-.52.36.21,0,.83,0,1.51.07C66.81,46.7,65.13,46.47,65.24,46.16Zm1.19,0c.29,0,.36,0,.67,0C67.1,46.34,64.72,46.21,66.43,46.16ZM70.31,5.61c.11,0,.13,0,.12.06h-.25Zm0,40.52c-.24.15-.58-.15-1-.13C69.51,45.76,70.1,46,70.31,46.13Zm-1.55.53c-.24-.06-.53-.09-.49-.25h.67C69,46.55,68.82,46.58,68.76,46.66Zm2.53,0a12.41,12.41,0,0,1-2-.07.91.91,0,0,1,.85,0c.36,0,.08-.22.18-.3.35,0,.4.12.16.12C70.35,46.58,71.47,46.38,71.29,46.61ZM70.61,3c0-.15.63-.13.84,0C71.43,3.13,70.82,3.12,70.61,3Zm15.53-.26a3.24,3.24,0,0,1-1.35.06C85.12,2.63,85.47,2.79,86.14,2.77ZM84.48,5.52c.59,0,.17,0,.15.15h-.71A2.37,2.37,0,0,0,84.48,5.52ZM83.32,45.69a.09.09,0,0,0,0,.1.88.88,0,0,1-.33-.1ZM81.42,2.74c.31.12,0,.16,0,.3-.56,0-.53-.25-1.17-.12C80.19,2.7,81.13,2.84,81.42,2.74ZM78.75,5.67h0Zm-.69,0h0Zm-1.51,0,.47,0h-.48Zm.63,40s0,0-.11.06a3.85,3.85,0,0,1-.55-.06Zm-1.39,0h.27c-.18.18.54.05.33.24a3.89,3.89,0,0,1-1-.07C75.42,45.8,76.08,45.72,75.79,45.69Zm-3.27.09c.67-.07.33.2,1,.13C74,46,72.31,46,72.52,45.78Zm2.33.5a8.59,8.59,0,0,0-1.34-.07c-.16-.18.38-.11.68-.12,0-.13,0-.22-.33-.24.52-.19.68.24.83.37h.84C76.07,46.29,75.07,46.29,74.85,46.28Zm3.37.08a9.82,9.82,0,0,0-1.87.29c-.49,0-.51-.14-1-.13.19-.24.51,0,1,0,.22-.2-.55-.05-.33-.25.53.08.42-.09.68-.11.55-.07.12.19.67.12.24,0,0-.1-.16-.12.17-.18.44.07.67.07,0-.12,1.34-.13.51-.06C78.2,46.19,78.25,46.29,78.22,46.36Zm.34.06c0-.13.43-.12.84-.11,0,.07,0,.1.17.12C79.39,46.6,78.85,46.41,78.56,46.42ZM80.1,46c-.29,0,.21.21-.52.18-.06-.15.32-.13.19-.3.26.1.7,0,1.35,0C81.09,46,80.54,46,80.1,46Zm3,.44a14,14,0,0,1-1.7.23c-.22-.27.57-.16,1-.17,0-.16-.55-.13-1-.13V46c.16.22,1.41.07,1.33.37.24,0,.67-.23.35-.24.27,0,1,0,.52-.3a1.56,1.56,0,0,0,.9-.16h.14c0,.15.51.13.48.29-.31,0-.36-.07-.68-.06-.58.12,0,.26-.86.35A2.13,2.13,0,0,0,85,46.4c-.25-.13-.42,0-.84-.06a11.7,11.7,0,0,1,1.18-.12c.14.08.22.17.16.31A14.43,14.43,0,0,1,83.11,46.39Zm3.54,0c-.61,0-.64-.07-.67-.12s.35-.15.35-.18-.51-.11-.33-.24c.88-.07.7.23,1.17.31C86.92,46.29,86.5,46.08,86.65,46.41Zm.35-.72h0Zm1,.49c-.44,0-.72,0-.66-.18.14,0,.16,0,.17-.06C88,45.92,88.07,46,88,46.18Zm1.88-.41s0-.05,0-.08h.43A.73.73,0,0,1,89.89,45.77Zm.14.6c.67-.13.49-.23.86-.41C91.66,46.09,90.62,46.37,90,46.37ZM85.24,5.67a16.59,16.59,0,0,1,3-.06c.21,0,.35-.08.34-.18.89,0,1.83.13,2.86.14.59,0,1.9-.27,1.85.1Zm6.92,40h.69a.89.89,0,0,1-.26,0A1.24,1.24,0,0,1,92.16,45.69Zm1.25.59a2.35,2.35,0,0,0-.68-.07c-.06-.12.13-.16.18-.24C93.44,46,93.45,46.1,93.41,46.28Zm.87-41c0,.06-.21,0-.35,0,0,.16.29.19.31.33h-.39C93.3,5.57,93.51,5.3,94.28,5.29ZM94.09,46c-.86,0-.2-.17-.15-.35h.21a1.83,1.83,0,0,0,.46.05C94.46,45.85,93.93,45.82,94.09,46ZM97,5.54s0,.07-.17.06,0-.07-.17-.06a4.21,4.21,0,0,1-.85.12c-.38,0-.77-.16-1.17-.19.19-.26.87,0,1.36,0,.93,0,1.91-.17,2.53-.11C98.29,5.49,97.82,5.53,97,5.54Zm13,40.24c.06-.06-.25,0-.34,0s.1.24-.34.18c0-.07.06-.2,0-.27H110A.12.12,0,0,1,110,45.78ZM120.74,5.52a13.14,13.14,0,0,0-3.2,0c-.14-.06-.46,0-.5-.13a4.28,4.28,0,0,1-1.53.11c-.17,0,0-.22-.49-.18,0-.25,1.25-.2,1.69-.17.28,0,.29-.06.51-.06.39,0,.94.13,1.34.13s.55-.08.85,0,1,.1,1,.24c.3,0,.36-.07.68,0C121.71,5.49,120.59,5.4,120.74,5.52Zm2.05-.35c.27-.15,1,0,1,.19C123.13,5.4,123.2,5.21,122.79,5.17ZM125,5.6c-.33-.08,1-.06,1.35-.11S125.46,5.62,125,5.6Zm3.08.07a.73.73,0,0,1,.29-.16c.07,0,.12.11.18.16Zm1.28,0a.25.25,0,0,1,.19-.1l.3.1Zm1.84,0a.83.83,0,0,1,.62,0Zm1.45,0h-.3a.46.46,0,0,1,.23,0c.14-.13-.77-.19-.15-.3a1,1,0,0,1,.5.18A.46.46,0,0,0,132.61,5.67Zm13.61-.23c-.45,0-.55-.09-.5-.24h.51ZM157.66,22c-.2.7.15,1,.17,1.69-.18.21-.28-.44-.3-.86S157.49,21.86,157.66,22Zm-.41-1.21c.1-.72.42.09.35.87C157.38,21.68,157.37,21.08,157.25,20.82Zm.54,8.63c-.14.05-.23,0-.3-.18,0-.57.26-.27.37-.49C157.86,29.08,157.78,29.13,157.79,29.45Zm.09-4q-.19,0-.18-.51c0,.08-.1.17-.18.15,0-.67.16-.43.3-.32.06-.1.07-.38.18-.33A2.5,2.5,0,0,0,157.88,25.41Z"/><path class="cls-1" d="M43.53,48.72c-.1.18.57.16.15.3h.51C44.1,48.87,44.06,48.71,43.53,48.72Z"/><path class="cls-1" d="M12.05,47.37c-1.46,0,1.26.07,2,.08a16,16,0,0,0,2.37-.05C15.21,47.42,13.17,47.35,12.05,47.37Z"/><path class="cls-1" d="M149.12,48.55a1.23,1.23,0,0,1-.51.06c-.18,0,.09-.13-.33-.12s-.14.15-.52.12c.1-.09-.18-.32.19-.3h1.35c0-.12.19-.14.18-.24l-4.39,0a2.93,2.93,0,0,1-1.35.05c-.21,0-.34,0-.67.06s-.37-.07-.68-.07l-3.88.1c-1.07,0-2.11-.06-3.2,0-.52,0-1,.09-1.53.11-1.8,0-4.31,0-5.73,0-.31,0-.7.06-1,0-1.34,0-2.66-.12-3.88-.08-.71,0-1.47,0-2.19,0l-.52.18c0-.08-.21-.08-.16-.18-1.13,0-3.1,0-4.72,0-.19.28.58-.1.67.12-.29.13-1.58.06-1-.12-1.26.07-2.89-.08-3.89.09,0-.1-.28-.14-.67-.12.44.18-.32.34-.68.17.2,0,.48,0,.51,0-.73,0-1.39-.11-2-.14-1.07,0-1.23.17-2.2.11-.19.22.57.12.67.24a8.16,8.16,0,0,1-2.52-.25,27,27,0,0,0-3,0c.13,0,.33,0,.33.06a3.35,3.35,0,0,1-1.34-.13c.26.17-.73.16-.67.06s.58,0,.5-.06a5.81,5.81,0,0,0-2,.11c-.33-.24-1.17-.09-1.85-.07-.32,0-.37-.07-.67-.07-1.12,0-2.58,0-3.37,0-2.58-.1-4.47,0-6.58,0-.38,0-.82-.19-1,0,.2,0,.48,0,.5.06-.62,0-.64-.13-1.17-.12-.3.19-.45,0-1,.05a4,4,0,0,1-1.17-.07c-.22,0-.17.1-.35.12-.42,0-1.8.11-2,.11s-.4-.12-.67-.13-.58.06-.84.06c-.47,0-.83-.07-1.35-.07s-1.39,0-2,.05c-1.21,0-2.71,0-4-.09-.26,0-.15.19-.68.12.34-.14,0-.07-.16-.19-2,0-3.61.06-5.73-.09a2.31,2.31,0,0,1-1.52.17c.32,0,1,.09.85-.12-1.29-.14-3.32,0-4.89-.09-.22,0-.16.11-.34.12-.47,0-.7-.15-1.18-.19a20.74,20.74,0,0,1-2.86,0c.06.16-.78.28-1,.12.27,0,.58,0,.51-.12-.36-.13-.69.06-1.35,0,.48.2-.52.32-.85.18-.06-.15.77,0,.52-.18a5.71,5.71,0,0,1-1.52-.07c-.3.13-1,.14-1,.35.33,0,.33.09.5.13-.18-.19-.1-.17.35-.24-.11.23.37.27.83.3.22,0,.16-.1.34-.11.88.06,1.79,0,2.87,0-.07.08-.21.09,0,.17,3.94.15,5.77,0,9.94.13.06-.12-.22-.12-.32-.18a2.63,2.63,0,0,0,.34-.06c.44,0,.55.09.49.24.4,0,1.23-.07,1.35.07-.11.2-.65.08-1,0,0,.08-.06.15-.34.12a3.54,3.54,0,0,1-1-.12c-.59,0-.42.21-1,.17a20.58,20.58,0,0,0-3,0c.13,0,.33,0,.33.06a14.83,14.83,0,0,0-3.21.1c0-.08.58-.22.18-.24-.05.16-.28-.08-.67,0,.18.09.17.15-.18.18-.88-.3-1.69.06-2.86-.08-.25.26.64.13.48.36l-2.53,0c-.13.2.68.08.49.3-.42-.21-1.09-.08-1,0-.21,0-.34-.08-.33-.18-.6,0-.43.21-1,.17-.08-.28-.86,0-1.18,0-.53,0-1.28-.13-1.18,0,1.33.06,2.79.13,4,.14.32,0,.53-.07.84,0s.53.11.84.12.69,0,1,0c1.07,0,2.15.11,3.2.08.37,0,.63-.1,1-.11,1.46-.06,3,.07,4.72,0,.32,0,.13-.2.52-.18a9.25,9.25,0,0,1,1.68.07,1,1,0,0,1,.68-.17c0,.14-.49.06-.51.17a18.22,18.22,0,0,0,2.87,0,8.54,8.54,0,0,0,2.36,0c.22,0,.23.07.5.06,1.16-.06,2.57,0,3.88,0,.32,0,.38-.07.68-.06s.42.07.5.06.47-.11.68-.11.55.07.84.06.25-.05.51-.05c1,0,1.91.08,2.87.07.42,0,1-.09,1.35-.11.21,0,.23.07.5.07s.4-.1.68-.12a11.39,11.39,0,0,0,2.7,0c1.05,0,2.31.06,3.54,0,.33,0,.67-.09,1-.11s1.09-.06,1.52-.05a13.46,13.46,0,0,1,1.85.13c.27,0,.14-.15.51-.12s.72,0,1.34.13c0,0,0-.12.18-.12a14,14,0,0,0,2.36,0c0,.07,0,.17.16.18,0-.1.6-.12.85-.12,1,0,2.29.15,3,.2a4.13,4.13,0,0,0,.51-.05c.1,0,.19.17.5.12.71-.31,2.07.17,2.87-.1.1.24.89.24,1.51.31-.16-.1.75-.39,1.36-.17-.35-.06-.65.19-.35.17.93-.13,1.86.07,2.7,0,.4,0,.3.21.83.19a5.52,5.52,0,0,1,1.35,0,16.3,16.3,0,0,1,1.86,0c.23,0,.39.1.67.12,2.76.2,5.74.24,8.58.36.47,0,.84.08,1.35.07,1.17,0,2.66.06,3.87.08.22,0,.33-.06.68-.06.85,0,1.74.12,2.52.14.31,0,.52-.06.68,0a3.12,3.12,0,0,0,1.18,0c.29-.18-.62-.25-.15-.3.21.21.84,0,.85-.17a2,2,0,0,1-1.17-.25c-.08-.19.41-.24-.15-.3-.12.14-.89,0-.69.29s.85-.09.83.19a5,5,0,0,1-1.68-.13c.38,0,.21-.19.35-.24s.68.05.51-.12c-.57-.19-.59.06-.85.12s-.41,0-.51.06.54.11.17.12a4.21,4.21,0,0,1-.67-.19,3.52,3.52,0,0,0,1-.17,5.15,5.15,0,0,0-1.87.23c-.46-.17-.69.1-1.35,0,0-.12.2-.13.18-.24-.75,0-.29.38-.86.35V49.8c-.58.05-.64-.09-1.17-.06s-.08.26-.36.35a1.77,1.77,0,0,0-.66-.3c.36-.13,1,.15.86-.23.47.19.81,0,1.18,0,.2,0,.28.21.67.07a9.44,9.44,0,0,1,2.37-.17c.05-.17-.67-.22,0-.3-.07.15.31.14.16.3,1.25.06,2.72,0,3.88,0,.26,0,.57.06.84.06s.49-.11.68-.11.71.07,1,.06c1.68,0,3.37-.22,5.07-.2a2.89,2.89,0,0,0,.5.06c1.18,0,2.3-.1,3.38-.16a18.64,18.64,0,0,0,2-.1c.29-.12,0-.08,0-.24.39,0,.64,0,.68-.12C149.6,48.79,149.54,48.56,149.12,48.55Zm-88-.44c.34-.21.67.08,1,.07C61.77,48.38,61.44,48.1,61.1,48.11Zm-6.3,1.1c-.12.06-1.1-.09-1-.31.39.05.86.06,1.18.13C55.06,49.12,54.31,49.17,54.8,49.21Zm.49.36c.23-.11,1.35,0,1.34.13A4.61,4.61,0,0,1,55.29,49.57Zm5.56,0c.12-.22,1.14-.09,1.52,0C61.86,49.71,61.44,49.51,60.85,49.61Zm4.62-1.23c-.33-.06,1-.25,1.19-.12C66.54,48.41,65.62,48.25,65.47,48.38Zm11.42,1a2.53,2.53,0,0,1,1.18,0C78,49.56,77.25,49.45,76.89,49.41Zm7.25,0H82.62c0-.06.47-.26.51-.12C83.48,49.31,84.31,49.18,84.14,49.4ZM102.71,49a1.13,1.13,0,0,1,.85-.18C103.58,49,103.14,49,102.71,49Zm0-.72c-.25.08.13.13-.51,0,.21-.3,1.57,0,2.19,0C104.35,48.72,103.29,48.13,102.75,48.32Zm4.38.08c0-.19.7-.28,1-.17A1.74,1.74,0,0,1,107.13,48.4Zm2.36.08c-.5,0-.52-.14-1-.13C108.64,48.23,109.71,48.28,109.49,48.48Zm5.5,1.3h.67C115.85,50,114.7,50.05,115,49.78Zm2.34.25c-.19-.19.55,0,.35-.24s-.82-.11-.82-.3c.82-.05.43.32,1.33.25A1.13,1.13,0,0,1,117.33,50Zm6.9.34h-.67C123.44,50.14,124.38,50.14,124.23,50.37Zm-.32-.36a.52.52,0,0,0-.33-.12,2.2,2.2,0,0,1,1-.11C124.57,49.93,124.34,50,123.91,50Zm8.76.18c.23,0,.46,0,.68.06l.33.07s-.06.1,0,.12,1,0,.67.24a2.87,2.87,0,0,1-1-.37C133,50.3,132.5,50.37,132.67,50.19Zm-1.36.29h.84C132.4,50.67,131,50.66,131.31,50.48Zm1-.35c0,.11-.56,0-.51.17-.3-.2-1,.06-1.17-.24C131.4,50.15,131.7,50,132.34,50.13Zm-1.36.29c.05.26-.67,0-.85,0-.36,0-.43.2-.85.12C129.25,50.35,130.66,50.33,131,50.42Zm-3.54-.2c0,.18-.44.2-.85.23C126.57,50.26,127,50.25,127.44,50.22Zm15.76-1.4c-.2-.19-.12-.24.19-.36s.43.13.49.24C143.55,48.7,143.66,48.86,143.2,48.82Zm2.73-.53c-.4,0-1.08.13-1-.12.61-.05.81.14,1.18,0,.26,0,0,.06-.17,0a.51.51,0,0,0,.33.13C146.14,48.46,145.87,48.39,145.93,48.29Z"/><path class="cls-1" d="M45.55,48.79c.13,0,.33,0,.33.06a4.55,4.55,0,0,1-1.52,0c0,.2.76.17,1.34.19.07-.18.52-.21.86-.29A1.54,1.54,0,0,0,45.55,48.79Z"/><path class="cls-1" d="M47.39,48.92c-.6.1-.41,0-1-.06C46.28,49,47.48,49.15,47.39,48.92Z"/><path class="cls-2" d="M24.51,35.24H21.77V25.82a16.21,16.21,0,0,1,.17-2.08L19.47,33.5H18l-2.48-9.76a19,19,0,0,1,.17,2.08v9.42H13V16.14h2.69l3,10.56a5.89,5.89,0,0,1,.07.86,6.74,6.74,0,0,1,.07-.86l3-10.56h2.69Z"/><path class="cls-2" d="M24.64,35.37h-3V25.82c0-.14,0-.28,0-.44l-2.08,8.24H17.92l-2.1-8.26c0,.17,0,.32,0,.46v9.55h-3V16h2.92l3,10.49,3-10.49h2.92Zm-2.75-.25h2.5V16.26H21.91l-3,10.47c0,.35-.07.64-.07.83h-.25a5.5,5.5,0,0,0-.06-.84l-3-10.47H13.09V35.12h2.5v-9.3a18.53,18.53,0,0,0-.17-2.06l.24-.05,2.46,9.66h1.25l2.45-9.66.24.05a18,18,0,0,0-.17,2.06Z"/><path class="cls-2" d="M36.32,35.24H28.4V16.14h7.85v2.53h-5v5.57h4.3v2.48h-4.3v6h5.07Z"/><path class="cls-2" d="M36.44,35.37H28.27V16h8.1v2.78h-5v5.33h4.29v2.73H31.38v5.74h5.06Zm-7.92-.25h7.67V32.84H31.13V26.6h4.29V24.37H31.13V18.54h5V16.26h-7.6Z"/><path class="cls-2" d="M48.17,18.67H45V35.24H42.18V18.67H39V16.14h9.14Z"/><path class="cls-2" d="M45.15,35.37h-3.1V18.79H38.9V16h9.4v2.78H45.15Zm-2.85-.25h2.6V18.54h3.15V16.26h-8.9v2.28H42.3Z"/><path class="cls-2" d="M60.9,35.24H58.07l-.57-3.62H53.92l-.57,3.62H50.53v-.05l3.7-19.08h3Zm-3.8-6.08-1.4-8.61-1.4,8.61Z"/><path class="cls-2" d="M61.06,35.37H58l-.58-3.63H54l-.57,3.63H50.4v-.18L54.12,16h3.21l0,.1Zm-2.88-.25h2.57L57.13,16.24h-2.8L50.67,35.12h2.57l.58-3.63h3.79Zm-.94-5.83H54.15l1.55-9.53ZM54.45,29H57L55.7,21.33Z"/><path class="cls-2" d="M71.61,35.24H64.1V16.14H67V32.69h4.65Z"/><path class="cls-2" d="M71.74,35.37H64V16h3.11V32.57h4.65Zm-7.51-.25h7.26v-2.3H66.84V16.26H64.23Z"/><path class="cls-2" d="M93.21,35.24H90.46V25.82a18.28,18.28,0,0,1,.17-2.08L88.17,33.5H86.71l-2.47-9.76a19,19,0,0,1,.17,2.08v9.42H81.66V16.14h2.7l3,10.56a4.68,4.68,0,0,1,.07.86,7.15,7.15,0,0,1,.08-.86l3-10.56h2.7Z"/><path class="cls-2" d="M93.33,35.37h-3V25.82c0-.14,0-.28,0-.44l-2.09,8.24H86.62l-2.1-8.26c0,.17,0,.32,0,.46v9.55h-3V16h2.92l3,10.49,3-10.49h2.91Zm-2.74-.25h2.49V16.26H90.6l-3,10.47a6.23,6.23,0,0,0-.07.83h-.25a4.73,4.73,0,0,0-.07-.84l-3-10.47H81.78V35.12h2.5v-9.3a18.53,18.53,0,0,0-.17-2.06l.25-.05,2.45,9.66h1.26l2.44-9.66.25.05a16,16,0,0,0-.17,2.06Z"/><path class="cls-2" d="M106.77,35.24h-2.83l-.58-3.62H99.79l-.58,3.62H96.39v-.05l3.7-19.08h3ZM103,29.16l-1.39-8.61-1.4,8.61Z"/><path class="cls-2" d="M106.92,35.37h-3.09l-.57-3.63H99.89l-.57,3.63h-3v-.18L100,16h3.21l0,.1Zm-2.87-.25h2.57L103,16.24H100.2L96.54,35.12h2.57l.57-3.63h3.79Zm-.94-5.83H100l1.55-9.53Zm-2.8-.25h2.5l-1.24-7.71Z"/><path class="cls-2" d="M118.27,18.67h-3.15V35.24h-2.84V18.67h-3.15V16.14h9.14Z"/><path class="cls-2" d="M115.25,35.37h-3.1V18.79H109V16h9.39v2.78h-3.14Zm-2.85-.25H115V18.54h3.14V16.26h-8.89v2.28h3.15Z"/><path class="cls-2" d="M130.72,33.5A1.54,1.54,0,0,1,129,35.24h-6a1.52,1.52,0,0,1-1.7-1.74V17.9c0-1.18.57-1.76,1.7-1.76h6a1.54,1.54,0,0,1,1.74,1.76v4.46h-2.84V18.59h-3.7v14.2h3.7v-4h2.84Z"/><path class="cls-2" d="M129,35.37h-6a1.64,1.64,0,0,1-1.82-1.87V17.9A1.65,1.65,0,0,1,123,16h6a1.67,1.67,0,0,1,1.87,1.89v4.59h-3.1V18.72H124.3V32.66h3.45v-4h3.1V33.5A1.66,1.66,0,0,1,129,35.37Zm-6-19.11c-1.06,0-1.57.54-1.57,1.64V33.5c0,1.09.51,1.62,1.57,1.62h6a1.42,1.42,0,0,0,1.62-1.62V28.9H128v4h-4V18.47h4v3.77h2.6V17.9A1.43,1.43,0,0,0,129,16.26Z"/><path class="cls-2" d="M144.18,35.24h-2.89V26.67h-3.87v8.57h-2.85V16.14h2.85V24h3.87V16.14h2.89Z"/><path class="cls-2" d="M144.3,35.37h-3.13V26.8h-3.62v8.57h-3.11V16h3.11v7.88h3.62V16h3.13Zm-2.88-.25h2.63V16.26h-2.63v7.88H137.3V16.26h-2.61V35.12h2.61V26.55h4.12Z"/></svg>